<?xml version="1.0" standalone="no"?>
<!DOCTYPE svg PUBLIC "-//W3C//DTD SVG 20010904//EN"
 "http://www.w3.org/TR/2001/REC-SVG-20010904/DTD/svg10.dtd">
<svg version="1.0" xmlns="http://www.w3.org/2000/svg"
 width="1280.000000pt" height="960.000000pt" viewBox="0 0 1280.000000 960.000000"
 preserveAspectRatio="xMidYMid meet">
<metadata>
Created by potrace 1.15, written by Peter Selinger 2001-2017
</metadata>
<g transform="translate(0.000000,960.000000) scale(0.100000,-0.100000)"
fill="#000000" stroke="none">
<path d="M3000 9384 c-30 -8 -77 -25 -105 -39 -53 -26 -144 -96 -159 -124 -5
-9 10 1 33 22 62 56 125 93 200 119 84 29 206 29 346 0 55 -11 101 -19 103
-17 11 11 -238 55 -306 54 -31 0 -82 -7 -112 -15z"/>
<path d="M3238 9353 c7 -3 16 -2 19 1 4 3 -2 6 -13 5 -11 0 -14 -3 -6 -6z"/>
<path d="M3288 9343 c7 -3 16 -2 19 1 4 3 -2 6 -13 5 -11 0 -14 -3 -6 -6z"/>
<path d="M3328 9333 c7 -3 16 -2 19 1 4 3 -2 6 -13 5 -11 0 -14 -3 -6 -6z"/>
<path d="M3440 9330 c8 -5 20 -10 25 -10 6 0 3 5 -5 10 -8 5 -19 10 -25 10 -5
0 -3 -5 5 -10z"/>
<path d="M3731 9336 c10 -9 69 -36 69 -32 0 6 -55 36 -66 36 -4 0 -5 -2 -3 -4z"/>
<path d="M3410 9320 c8 -5 20 -10 25 -10 6 0 3 5 -5 10 -8 5 -19 10 -25 10 -5
0 -3 -5 5 -10z"/>
<path d="M3503 9304 c39 -21 33 -27 -9 -9 -51 21 -56 18 -11 -6 21 -11 42 -17
47 -14 12 8 124 -49 179 -91 53 -41 45 -42 -40 -8 -35 14 -73 25 -84 26 -11 0
-52 7 -92 15 -39 8 -82 13 -95 10 -18 -3 -16 -5 9 -6 34 -1 178 -44 203 -61
24 -16 0 -11 -83 15 -72 23 -141 35 -94 17 10 -4 -31 -8 -90 -9 -59 -1 -124
-6 -143 -11 -28 -8 -19 -9 45 -6 l80 4 -63 -15 c-35 -8 -78 -21 -95 -29 -18
-8 -62 -17 -99 -21 -36 -3 -124 -22 -195 -41 -70 -20 -203 -55 -295 -79 -92
-24 -171 -46 -175 -48 -5 -3 -44 1 -88 9 -44 7 -101 13 -127 13 -60 1 -200
-42 -258 -80 -51 -33 -146 -116 -115 -101 11 6 29 20 40 32 61 67 219 131 326
131 93 0 180 -11 173 -23 -3 -5 -20 -7 -37 -4 -24 5 -27 4 -12 -3 21 -9 18
-11 -54 -37 -8 -2 -11 -7 -8 -10 3 -3 24 4 48 15 23 12 57 21 73 21 24 0 27 3
16 10 -13 9 -13 10 0 10 23 0 83 -19 89 -28 8 -10 123 -52 144 -52 16 0 97
-38 97 -46 0 -2 -12 1 -27 7 -28 11 -44 15 -92 25 -13 3 -32 9 -42 14 -10 6
-28 10 -41 9 -14 0 -5 -6 24 -15 58 -18 72 -35 22 -27 -25 4 -35 3 -31 -4 4
-7 -20 -6 -66 3 -72 14 -114 17 -89 7 30 -12 -4 -22 -61 -18 -58 3 -57 3 13
-6 41 -6 102 -17 135 -24 l60 -13 -85 -2 c-59 -2 -74 -5 -50 -9 34 -6 33 -7
-35 -25 -38 -11 -97 -23 -130 -26 -36 -5 -48 -8 -30 -10 18 -1 2 -6 -38 -11
-37 -5 -134 -28 -215 -50 -81 -23 -192 -52 -247 -66 -105 -25 -228 -63 -223
-68 2 -2 41 8 87 21 99 29 278 67 306 66 16 -1 17 1 5 9 -12 8 -8 10 13 6 15
-2 25 -2 22 1 -5 5 118 42 140 41 6 0 2 -6 -9 -14 -17 -13 -15 -14 20 -9 29 4
35 3 24 -5 -8 -6 -11 -11 -6 -11 13 0 -35 -50 -48 -50 -6 -1 -24 -7 -41 -16
-28 -13 -28 -14 -4 -9 39 7 42 -5 12 -39 -15 -17 -7 -12 18 12 53 50 109 70
215 77 39 2 84 9 99 15 14 5 38 10 53 10 l27 -1 -30 -16 c-16 -10 -66 -32
-110 -51 -44 -19 -105 -45 -135 -58 -30 -13 -48 -24 -40 -24 22 0 102 25 96
30 -2 3 16 6 40 7 24 1 59 6 78 13 18 6 42 12 52 15 10 2 39 11 63 19 24 9 51
16 60 16 31 -1 -65 -41 -154 -64 -49 -13 -115 -35 -145 -50 -30 -14 -47 -24
-37 -21 57 16 69 14 28 -5 -24 -11 -41 -23 -38 -26 3 -3 19 2 37 11 17 9 36
15 41 13 5 -2 -21 -16 -58 -33 -37 -16 -112 -58 -165 -92 -96 -62 -129 -91
-65 -56 17 10 37 18 42 18 6 1 30 11 53 24 61 31 62 20 3 -22 -70 -51 -195
-171 -182 -175 6 -2 8 -9 5 -15 -4 -7 11 4 32 24 21 19 53 47 71 61 18 14 30
28 27 31 -2 2 9 10 26 17 16 7 30 19 30 26 0 8 5 14 11 14 5 0 7 -4 4 -10 -3
-5 -3 -10 2 -10 11 0 90 49 80 50 -4 0 -19 -7 -33 -16 -13 -9 -27 -14 -30 -11
-7 7 47 36 66 35 8 -1 24 0 35 1 16 1 17 3 6 10 -10 7 -8 9 10 9 13 -1 39 3
58 7 22 5 32 5 28 -2 -4 -6 11 -7 45 -2 62 10 70 6 29 -16 -49 -25 -36 -27 25
-4 30 12 57 19 59 17 5 -5 -203 -135 -230 -143 -20 -7 -20 -6 -1 9 11 9 15 16
9 16 -5 0 -17 -8 -27 -19 -16 -17 -15 -18 11 -17 16 1 34 5 41 10 7 4 16 6 19
3 2 -3 -5 -10 -16 -17 -12 -6 -21 -8 -21 -5 0 4 -12 -3 -27 -14 -15 -13 -34
-19 -44 -16 -12 4 -27 -2 -41 -17 -13 -13 -56 -46 -95 -72 -40 -26 -73 -49
-73 -52 0 -2 25 9 56 26 31 16 61 27 67 23 6 -4 7 -1 2 7 -5 8 -4 11 2 7 6 -4
38 7 72 24 34 17 64 29 67 26 3 -2 -17 -21 -43 -41 -26 -20 -66 -50 -88 -67
-44 -34 -60 -58 -26 -40 35 19 24 4 -21 -28 -24 -17 -56 -43 -73 -57 -29 -26
-29 -26 -2 -10 40 24 33 10 -23 -50 -27 -29 -50 -57 -50 -63 0 -5 22 14 49 42
27 29 78 72 113 96 l63 44 -50 -54 c-27 -30 -36 -42 -20 -29 17 14 41 34 55
45 23 18 23 17 -3 -11 -15 -17 -25 -33 -22 -35 3 -3 -9 -18 -25 -34 -17 -16
-30 -32 -30 -37 0 -4 -29 -50 -64 -102 -35 -52 -69 -103 -75 -115 -23 -41 -3
-20 47 52 28 39 70 93 94 118 47 51 81 70 72 41 -4 -10 2 -7 14 8 12 14 23 22
27 19 3 -4 -6 -20 -20 -37 -14 -16 -25 -34 -25 -38 0 -5 -26 -35 -57 -68 -32
-32 -52 -56 -45 -52 23 13 12 -5 -22 -35 -19 -17 -33 -36 -30 -43 3 -8 -2 -16
-10 -19 -11 -4 -13 -1 -9 11 6 16 5 16 -13 1 -31 -27 -113 -59 -199 -80 l-80
-18 70 6 c39 3 82 12 97 19 21 11 28 11 31 1 4 -9 6 -9 6 1 1 8 9 10 26 6 15
-4 25 -2 25 4 0 11 38 28 53 24 5 -2 24 11 43 28 19 16 63 44 97 60 34 17 53
24 43 15 -11 -8 -24 -15 -30 -15 -5 0 -6 -3 -3 -7 9 -8 -22 -43 -37 -43 -6 0
0 9 14 20 40 31 7 23 -38 -9 -45 -33 -59 -51 -41 -51 7 0 5 -8 -6 -20 -21 -23
-35 -19 -15 5 22 27 -2 16 -49 -22 -25 -21 -48 -41 -52 -45 -8 -12 -61 -16
-224 -19 l-150 -2 162 -7 c89 -3 165 -9 169 -12 3 -4 -11 -14 -30 -23 -42 -20
-53 -32 -27 -30 11 1 35 13 54 28 31 23 44 26 109 26 40 -1 79 -6 86 -11 9 -8
16 -8 24 0 7 7 18 12 25 12 20 0 4 -30 -50 -93 -48 -56 -52 -58 -86 -52 -81
15 -83 14 -16 -9 64 -22 70 -26 47 -30 -5 0 -16 -9 -26 -18 -9 -9 -23 -15 -30
-12 -8 3 -17 1 -21 -5 -4 -7 0 -8 11 -4 13 5 15 3 9 -8 -6 -11 -5 -12 6 -1 18
17 25 15 26 -8 1 -11 -3 -20 -8 -20 -6 0 -8 4 -5 9 3 4 -10 8 -28 7 -19 0 -32
-4 -29 -8 2 -5 -9 -8 -26 -8 -16 0 -33 5 -36 10 -3 6 -12 10 -18 10 -7 0 -3
-7 7 -15 15 -11 17 -18 8 -27 -13 -13 -75 -12 -189 2 -43 6 -136 12 -208 15
l-130 4 150 -14 c83 -7 197 -19 255 -25 58 -7 118 -13 133 -13 19 0 24 -4 17
-11 -5 -5 -46 -9 -92 -8 -45 1 -79 0 -76 -3 2 -3 33 -6 67 -7 34 -1 64 -5 66
-8 8 -12 55 2 55 16 0 21 41 27 137 18 48 -4 113 -7 143 -6 l55 1 -40 -10
c-21 -5 -90 -8 -152 -5 -62 2 -115 0 -118 -4 -3 -5 52 -9 123 -10 70 -1 138
-3 152 -5 14 -2 34 -4 45 -5 15 -2 12 -5 -10 -11 -23 -6 -16 -7 29 -5 l59 3
-34 -18 c-42 -22 -25 -25 26 -3 53 22 52 12 -3 -23 -95 -61 -139 -78 -242 -90
-35 -5 -41 -7 -25 -14 47 -18 -96 -6 -180 15 -100 26 -121 27 -48 2 114 -39
296 -53 353 -26 8 4 42 4 75 1 l60 -6 -35 -17 c-19 -10 -29 -18 -22 -18 7 0
21 5 31 12 15 9 24 8 48 -8 l28 -19 -135 -3 c-74 -1 -138 -6 -142 -10 -4 -4
56 -6 134 -4 117 4 139 2 132 -9 -6 -12 -5 -12 8 -1 16 13 52 6 43 -8 -10 -17
-68 -40 -113 -46 -76 -10 -96 -25 -27 -20 l60 5 -40 -14 c-57 -19 -65 -18
-140 16 -85 38 -97 32 -14 -8 l61 -30 -30 -12 c-20 -8 -52 -11 -89 -7 -32 3
-123 7 -203 10 -135 4 -138 3 -45 -5 187 -16 390 -36 380 -38 -5 -2 -1 -6 10
-10 32 -13 -64 -23 -104 -11 -19 5 -37 8 -39 5 -3 -2 17 -10 44 -17 l48 -13
-34 -6 c-19 -4 26 -7 100 -8 86 -2 128 -6 115 -11 -11 -5 -33 -9 -50 -10 l-30
-2 30 -7 c26 -6 20 -9 -55 -30 -47 -13 -103 -24 -125 -25 -76 -4 -90 -30 -17
-32 46 -2 191 -31 162 -33 -13 -1 -13 -2 0 -11 10 -6 -28 -8 -110 -6 -104 3
-137 8 -196 30 -78 28 -110 34 -54 10 113 -49 154 -58 277 -58 68 -1 123 -4
123 -8 0 -3 8 -9 18 -11 9 -3 -69 -5 -175 -4 -105 1 -195 -2 -199 -6 -4 -4 80
-7 187 -7 158 -1 191 -3 177 -13 -13 -11 -3 -12 60 -10 l77 2 -40 -15 c-22 -8
-58 -23 -80 -33 -22 -10 -58 -24 -80 -31 -22 -7 -34 -15 -26 -18 13 -4 28 -1
144 35 26 8 53 13 60 10 14 -5 -151 -85 -194 -94 -16 -3 -29 -9 -29 -13 0 -4
-17 -15 -38 -24 -29 -13 -44 -15 -65 -7 -18 7 -26 7 -22 1 3 -6 13 -10 21 -10
23 0 16 -19 -11 -26 -13 -3 -48 -3 -77 0 -29 3 -116 7 -193 10 -130 4 -133 4
-35 -4 58 -4 145 -11 194 -15 l88 -8 -43 -39 -44 -39 46 31 c26 17 59 34 75
37 52 10 193 12 199 3 3 -4 -49 -35 -115 -67 -114 -55 -152 -83 -109 -80 10 1
19 5 19 9 0 4 10 12 23 18 21 11 21 10 3 -4 -29 -23 -14 -28 34 -11 50 18 53
18 45 5 -3 -6 11 0 31 12 21 12 35 17 31 11 -5 -7 0 -9 13 -6 11 3 23 9 26 14
3 5 15 9 27 8 21 0 21 -1 2 -10 -18 -8 -17 -9 5 -5 14 3 43 8 65 12 l40 7 -25
-28 c-24 -26 -22 -26 22 6 26 18 50 30 53 27 11 -11 -8 -37 -36 -48 -16 -7
-26 -16 -24 -21 9 -13 -73 -32 -170 -39 l-90 -7 80 -1 c44 -1 98 3 120 8 22 5
41 8 42 6 1 -1 -38 -33 -87 -71 -50 -38 -90 -71 -90 -73 0 -6 22 10 129 90
110 83 158 106 77 36 -27 -23 -65 -60 -85 -82 -20 -23 -51 -55 -70 -73 -40
-38 -36 -51 8 -28 17 8 31 13 31 10 0 -4 10 1 22 9 12 9 32 16 44 16 12 0 53
14 91 30 l68 30 -35 -31 c-19 -17 -75 -52 -125 -76 -103 -52 -189 -108 -234
-153 -48 -49 -37 -58 14 -11 60 56 69 52 15 -6 -43 -46 -43 -46 -5 -11 66 59
181 128 222 132 48 5 88 18 140 45 53 26 68 9 19 -20 -34 -20 -41 -47 -9 -35
37 15 -5 -17 -75 -55 -118 -65 -234 -138 -267 -170 -31 -29 -170 -91 -235
-104 -76 -15 -207 -105 -291 -201 -54 -61 -145 -189 -187 -264 -17 -30 -43
-98 -57 -151 -25 -93 -25 -100 -16 -278 l8 -182 -28 -69 c-15 -38 -33 -106
-40 -152 -13 -97 -63 -260 -85 -283 -9 -8 -12 -15 -7 -15 4 0 1 -4 -7 -10 -11
-7 -15 -41 -17 -163 -2 -138 -5 -162 -28 -223 -15 -38 -34 -91 -44 -118 -11
-28 -21 -43 -24 -35 -3 8 -5 -44 -4 -116 1 -71 -2 -143 -7 -159 -7 -22 -6 -27
4 -21 9 6 9 3 0 -16 -18 -34 -24 -38 -16 -11 14 43 -5 21 -31 -35 -17 -39 -27
-81 -29 -128 -3 -49 -1 -64 5 -50 13 26 13 18 2 -41 -5 -27 -28 -87 -50 -134
-30 -64 -37 -88 -30 -102 6 -10 7 -28 4 -39 -4 -12 -8 -51 -10 -87 -3 -75 -12
-105 -28 -95 -5 3 -8 2 -4 -3 3 -5 -3 -25 -14 -44 -10 -19 -19 -28 -19 -20 -1
17 -25 -62 -39 -127 -4 -23 -16 -54 -25 -67 -9 -14 -16 -33 -15 -43 0 -14 3
-12 10 6 5 13 11 22 14 19 7 -7 -15 -78 -25 -78 -5 0 -7 8 -4 18 3 9 -6 -4
-20 -30 -13 -27 -22 -56 -19 -67 2 -10 -3 -33 -12 -51 -14 -28 -33 -102 -38
-152 -1 -9 -4 -15 -8 -13 -11 8 -42 -34 -36 -49 3 -8 0 -19 -6 -25 -7 -5 -13
-22 -15 -38 -1 -23 3 -20 23 22 29 58 29 58 13 49 -7 -4 -10 -3 -5 1 4 5 17
10 28 12 17 3 18 0 9 -17 -9 -16 -8 -20 5 -20 8 0 15 7 15 15 0 9 6 12 15 9 9
-4 15 0 15 9 0 17 40 70 47 63 3 -3 -2 -15 -11 -28 -28 -40 -17 -52 13 -14 28
36 50 47 43 22 -5 -15 2 -7 32 37 14 21 26 42 26 47 0 5 4 11 9 14 9 6 -1 -64
-13 -82 -4 -7 -5 -12 -2 -12 3 0 12 13 21 30 8 16 27 41 41 55 25 25 25 25 18
3 -3 -13 -13 -27 -20 -31 -8 -4 -14 -16 -14 -25 0 -22 -29 -64 -40 -57 -13 8
-22 -27 -10 -39 8 -8 11 -8 8 0 -2 7 2 13 7 14 6 1 17 8 26 16 14 12 18 13 22
2 4 -9 13 -4 31 17 58 68 16 -21 -46 -99 -56 -70 -64 -100 -12 -41 23 26 34
33 30 20 -4 -12 10 -2 34 25 32 36 40 41 41 25 l0 -20 9 20 c6 14 9 -5 10 -60
2 -44 2 -84 1 -88 -1 -4 3 -16 8 -25 5 -9 12 -47 15 -85 6 -75 23 -121 60
-170 15 -19 26 -41 26 -50 0 -10 5 -17 11 -17 6 0 9 6 6 14 -3 8 0 17 8 20 10
4 11 -2 4 -26 -5 -18 -13 -36 -19 -42 -5 -5 -10 -21 -10 -35 1 -25 1 -26 16
-6 15 19 15 19 13 -10 -1 -16 1 -54 5 -83 7 -49 11 -55 41 -68 80 -33 369 -44
397 -16 10 10 3 30 -26 90 -21 42 -45 92 -53 111 -13 31 -13 33 2 27 13 -5 15
-2 9 17 -11 35 -43 95 -55 102 -9 6 -83 100 -139 178 -8 11 -18 55 -22 96 -4
42 -10 105 -13 141 -5 50 -3 73 10 100 16 34 16 34 10 5 l-5 -30 18 33 c10 18
39 54 64 80 64 67 94 124 116 224 11 48 32 108 46 133 29 49 41 58 31 23 -5
-18 -4 -20 4 -8 6 8 11 21 11 28 0 7 12 39 26 70 18 39 30 91 39 167 12 104
28 157 73 250 11 22 22 47 25 55 4 8 4 -7 1 -35 -3 -27 -19 -76 -35 -108 -16
-32 -27 -62 -24 -67 3 -5 -1 -28 -9 -52 -8 -24 -19 -83 -25 -132 -6 -49 -17
-96 -25 -105 -8 -9 -17 -29 -21 -46 l-6 -30 15 31 c7 18 19 35 25 38 14 9 31
75 36 134 3 44 53 195 76 231 8 12 9 9 4 -14 -4 -23 -3 -26 5 -13 5 9 15 51
21 94 6 43 12 81 14 84 2 4 5 65 7 137 1 79 6 129 12 126 5 -3 6 -1 2 5 -7 12
35 165 58 209 23 45 183 210 250 258 34 24 72 54 84 68 l24 25 61 -43 c34 -23
80 -52 103 -63 67 -34 139 -97 170 -149 27 -46 29 -55 36 -223 9 -204 -1 -328
-37 -443 -14 -43 -25 -91 -25 -108 0 -48 43 -140 123 -261 41 -62 99 -167 130
-233 30 -66 74 -160 97 -210 23 -49 46 -99 51 -110 5 -11 19 -36 31 -55 12
-19 30 -62 40 -95 10 -33 16 -47 14 -30 -4 28 -3 28 10 10 8 -10 14 -23 14
-28 0 -5 12 -23 26 -40 14 -16 40 -60 59 -96 31 -61 66 -102 140 -160 28 -22
28 -21 -3 8 -18 17 -29 31 -24 31 12 0 57 -49 58 -63 0 -7 2 -23 2 -36 2 -20
4 -22 17 -11 22 18 28 7 17 -32 -10 -36 4 -88 27 -102 6 -4 61 -14 123 -22
171 -23 328 -6 328 36 0 10 -20 45 -44 77 -57 78 -69 100 -55 105 13 4 -49
138 -76 161 -38 33 -106 69 -146 78 -60 14 -155 82 -179 128 -11 22 -37 59
-58 84 -24 28 -62 98 -102 188 -35 79 -85 188 -112 242 -31 63 -55 129 -67
185 -10 48 -28 113 -40 144 -39 105 -25 164 82 341 122 203 197 524 166 718
-21 125 -17 275 7 339 45 119 54 240 28 377 -5 28 -2 34 33 57 29 20 58 28
109 32 140 12 274 71 514 228 205 134 292 220 531 522 164 208 177 227 240
372 30 68 63 134 74 148 l20 26 65 -17 c89 -23 339 -18 387 8 17 9 64 55 104
101 44 53 96 101 136 127 58 37 152 126 240 228 l30 35 17 -77 c16 -71 16 -78
0 -101 -18 -29 -9 -36 12 -8 12 16 13 15 14 -8 0 -44 -28 -158 -46 -185 -9
-14 -15 -28 -12 -30 2 -2 15 14 28 35 29 48 59 66 37 22 -14 -26 -38 -112 -31
-112 2 0 10 12 18 28 8 15 15 21 16 14 0 -7 -5 -23 -12 -35 -12 -22 -14 -35
-21 -145 -2 -34 -10 -68 -17 -75 -10 -10 -10 -8 -1 10 6 12 11 28 11 35 -1 7
-8 0 -16 -17 -9 -16 -31 -44 -50 -62 -19 -18 -34 -39 -34 -47 0 -8 -18 -36
-40 -61 -47 -55 -51 -85 -19 -172 44 -120 179 -283 234 -283 19 0 29 15 66
102 24 57 53 114 66 127 39 40 70 122 83 216 8 61 23 115 47 168 40 90 39 125
-8 242 -34 88 -51 265 -47 505 l2 165 -34 63 c-40 75 -78 107 -144 122 -86 19
-138 5 -250 -70 -142 -93 -141 -93 -241 -135 -50 -21 -118 -60 -154 -88 l-64
-51 -21 29 c-11 16 -29 36 -38 44 -10 9 -18 19 -18 24 0 14 155 200 202 242
89 79 140 114 191 130 29 9 62 21 75 28 17 8 31 8 53 0 27 -11 29 -10 24 8 -7
20 -6 20 59 23 19 0 32 4 30 8 -6 9 66 -2 89 -14 31 -16 31 -1 0 17 -17 10
-20 14 -8 11 63 -16 80 -17 65 -7 -12 8 -12 13 -3 22 10 10 25 9 70 -1 32 -7
90 -16 128 -20 39 -4 79 -11 90 -14 11 -3 7 0 -10 8 -16 8 -51 15 -77 16 -26
0 -50 5 -53 10 -4 6 13 10 45 10 28 0 49 4 46 9 -3 5 8 11 24 13 32 5 42 -8
13 -15 -10 -2 -1 -4 19 -4 20 -1 41 -4 47 -7 5 -4 12 -2 15 3 3 5 -5 12 -19
15 -33 8 -32 22 3 29 19 4 28 12 28 26 0 11 -4 18 -7 15 -4 -2 -10 -1 -13 4
-2 4 3 8 13 9 11 1 24 -11 34 -32 11 -24 25 -36 44 -40 15 -3 43 -11 62 -17
32 -10 36 -8 54 16 14 20 27 26 57 26 35 0 46 7 123 88 139 142 171 191 133
205 -7 3 -62 13 -122 22 -77 12 -114 23 -127 36 -9 10 -42 26 -73 35 -51 15
-61 14 -131 -1 -42 -10 -129 -21 -193 -25 -108 -6 -124 -10 -206 -48 -135 -62
-403 -130 -579 -147 -38 -4 -87 -11 -109 -17 -52 -13 -139 -70 -208 -137 l-57
-54 -53 40 c-29 22 -80 57 -113 78 -96 60 -219 160 -269 218 -57 67 -147 225
-180 316 -23 65 -25 83 -28 309 -2 132 0 243 4 247 9 9 42 -10 116 -66 73 -56
143 -80 228 -78 48 1 78 -6 159 -38 93 -38 100 -42 108 -74 15 -61 77 -109
138 -109 73 0 161 23 206 54 39 26 51 43 75 101 15 39 28 77 28 86 0 8 5 20
11 26 6 6 15 29 20 51 11 52 0 83 -54 142 -23 26 -64 76 -92 111 -27 35 -70
89 -96 119 -45 53 -179 250 -191 280 -3 8 -30 49 -60 91 -30 42 -58 80 -61 85
-3 6 20 -3 51 -18 63 -30 101 -38 68 -13 -20 15 -20 15 0 15 11 0 44 -16 73
-35 30 -19 59 -31 65 -28 5 4 -9 15 -32 24 -23 10 -42 21 -42 24 0 3 9 1 21
-5 31 -17 34 -5 4 17 -14 10 -44 33 -66 51 l-41 32 29 1 c22 1 19 3 -15 10
-78 15 -87 37 -13 35 27 0 47 1 45 4 -8 7 -96 31 -137 37 -20 3 -40 9 -43 14
-3 5 -14 9 -25 9 -33 0 -21 27 16 34 19 4 35 12 35 17 0 6 -9 7 -22 3 -13 -4
-30 -9 -38 -11 -8 -3 9 10 38 27 29 18 51 34 48 37 -2 2 -15 -2 -28 -10 -12
-8 -34 -18 -48 -22 -22 -7 -23 -6 -11 9 12 15 11 15 -22 1 -45 -19 -69 -19
-45 -1 10 7 15 16 12 19 -3 3 1 16 10 29 23 32 20 45 -5 17 l-20 -24 7 24 c4
17 3 21 -6 16 -9 -6 -10 1 -5 24 7 33 -4 146 -13 123 -2 -8 -12 2 -22 25 -10
21 -35 56 -56 78 -22 22 -36 36 -32 31 15 -19 8 -28 -9 -15 -15 12 -15 10 1
-8 10 -12 23 -21 28 -20 6 1 13 -4 16 -12 3 -9 0 -11 -8 -6 -9 5 -11 4 -6 -4
4 -6 11 -9 15 -7 4 3 13 -4 20 -16 7 -11 8 -17 3 -14 -6 3 -4 -19 4 -51 19
-82 18 -84 -20 -28 -18 28 -55 68 -82 91 -70 58 -85 63 -39 14 l40 -43 -50 38
c-34 27 -44 31 -30 15 38 -47 79 -110 71 -110 -8 0 -101 124 -99 132 2 4 -3 5
-10 3 -14 -6 -99 70 -89 80 3 3 -1 3 -10 0 -9 -4 -19 -1 -23 4 -3 6 -11 8 -17
5 -7 -5 -9 -1 -5 9 3 9 3 16 -2 14 -5 -1 -18 9 -30 23 l-23 25 16 -25 c26 -40
20 -57 -9 -30 -14 13 -25 19 -25 13 0 -6 -8 -10 -17 -8 -10 2 -23 4 -30 4 -6
1 -19 8 -27 17 -15 14 -16 14 -16 0 0 -19 -11 -21 -28 -4 -9 9 -15 9 -24 0 -9
-9 -7 -17 9 -34 34 -38 36 -48 11 -42 -13 3 -34 7 -48 9 -94 14 -169 44 -234
93 -37 29 -79 55 -94 58 -15 3 -57 21 -93 40 -65 33 -112 48 -56 18z m-65
-141 c-10 -2 -26 -2 -35 0 -10 3 -2 5 17 5 19 0 27 -2 18 -5z m49 -9 c-3 -3
-12 -4 -19 -1 -8 3 -5 6 6 6 11 1 17 -2 13 -5z m597 -55 c26 -29 44 -54 42
-56 -8 -8 -22 5 -66 57 -55 66 -35 65 24 -1z m1 41 c4 -6 10 -8 15 -5 5 3 29
-4 52 -17 24 -12 48 -21 55 -20 14 3 63 -65 63 -88 0 -13 2 -13 9 -1 8 12 11
9 17 -12 11 -46 1 -39 -45 29 -45 66 -54 76 -45 47 4 -12 -1 -10 -16 7 l-21
25 15 -32 c18 -35 40 -55 29 -26 -7 19 -5 18 17 -11 13 -17 13 -18 1 -11 -11
6 -13 4 -8 -8 3 -10 4 -17 1 -17 -12 0 -54 33 -54 44 -1 6 -17 29 -36 51 l-36
40 28 -45 27 -45 -46 48 c-26 26 -47 50 -47 52 0 9 19 5 25 -5z m-1013 -57
c-12 -2 -20 -9 -17 -14 4 -5 1 -9 -6 -9 -7 0 -26 -10 -43 -23 -17 -13 -53 -29
-79 -37 -44 -12 -155 -71 -167 -89 -9 -14 -50 -32 -60 -26 -21 13 -79 11 -85
-3 -3 -10 1 -12 18 -7 17 5 19 4 7 -4 -12 -8 -11 -10 7 -9 14 2 19 7 15 17 -4
12 -1 11 18 -2 15 -11 44 -17 76 -17 30 0 54 -5 56 -11 3 -8 14 -7 35 5 18 9
38 16 45 15 7 0 4 -4 -7 -9 -14 -6 6 -9 60 -10 l80 -1 -60 -25 c-33 -13 -65
-22 -72 -20 -7 3 -13 2 -13 -2 0 -15 -62 -10 -106 8 -25 11 -42 15 -39 10 7
-12 3 -12 -19 -4 -9 3 -16 10 -16 16 0 5 5 6 12 2 7 -4 8 -3 4 4 -4 7 -17 9
-30 6 -14 -3 -39 2 -62 14 -52 26 -88 37 -80 24 4 -6 -2 -8 -16 -4 l-22 5 22
8 c12 5 33 4 47 -1 15 -6 26 -6 30 0 4 6 -4 10 -17 11 -55 3 -85 8 -113 19
l-30 12 25 10 c41 16 273 68 304 68 16 0 37 7 46 15 21 19 193 64 240 63 23 0
27 -2 12 -5z m-265 -59 c-3 -3 -12 -4 -19 -1 -8 3 -5 6 6 6 11 1 17 -2 13 -5z
m273 -18 c0 -2 -18 -6 -40 -8 -22 -2 -40 0 -40 4 0 5 18 8 40 8 22 0 40 -2 40
-4z m200 -17 c18 -6 9 -7 -30 -4 l-55 4 50 -13 c42 -11 46 -13 25 -18 -14 -3
4 -6 40 -7 123 -4 99 -16 -33 -16 -73 0 -138 -4 -146 -10 -11 -7 -13 -7 -7 3
8 13 -6 17 -18 5 -4 -4 -19 -8 -34 -10 -15 -2 -60 -10 -100 -19 -41 -9 -77
-13 -80 -9 -4 4 13 24 38 45 46 39 86 50 189 50 43 0 44 0 26 -20 -25 -28 -6
-24 30 5 31 26 61 30 105 14z m1060 -32 c0 -26 -15 -12 -25 23 -7 22 -6 23 9
11 9 -7 16 -23 16 -34z m-1402 26 c-19 -5 -25 -23 -8 -23 6 0 -5 -13 -23 -30
-19 -16 -39 -30 -45 -30 -5 0 -15 -7 -22 -15 -8 -10 -29 -15 -59 -15 l-46 1
34 27 c43 35 152 92 171 91 11 -1 10 -3 -2 -6z m1456 -76 c14 -23 27 -55 31
-72 6 -27 5 -28 -6 -10 -6 11 -22 31 -35 45 -25 27 -46 99 -26 86 7 -4 23 -26
36 -49z m-1861 -214 c-13 -2 -35 -2 -50 0 -16 2 -5 4 22 4 28 0 40 -2 28 -4z
m-326 -99 c-3 -3 -20 -9 -39 -13 -18 -5 -44 -12 -58 -16 -22 -7 -23 -6 -12 8
8 9 30 18 50 20 20 2 43 4 51 5 8 1 12 -1 8 -4z m217 -50 c-84 -28 -226 -66
-230 -61 -7 6 177 76 211 79 50 6 60 -4 19 -18z m266 -34 c8 -5 11 -10 5 -10
-5 0 -17 5 -25 10 -8 5 -10 10 -5 10 6 0 17 -5 25 -10z m2250 -61 l25 -21 -25
16 c-14 9 -37 21 -52 27 -16 6 -28 15 -28 20 0 12 46 -13 80 -42z m-2680 -43
c0 -2 -9 -6 -20 -9 -11 -3 -18 -1 -14 4 5 9 34 13 34 5z m-80 -41 c0 -3 -33
-21 -72 -41 -40 -20 -68 -32 -63 -26 8 8 124 71 133 72 1 0 2 -2 2 -5z m418
-104 c9 -5 0 -11 -30 -16 -24 -4 -46 -7 -50 -7 -4 1 -41 -10 -83 -23 -41 -14
-81 -25 -88 -24 -9 0 -9 2 1 6 6 2 10 8 7 13 -9 15 64 53 78 42 9 -8 17 -8 27
0 12 8 12 9 -3 4 -10 -3 -16 -2 -13 2 6 10 139 14 154 3z m-189 -85 c-3 -3
-24 -9 -48 -15 -24 -5 -39 -6 -35 -1 12 11 94 26 83 16z m-119 -31 c-33 -19
-50 -18 -26 0 11 8 27 15 35 15 10 -1 7 -6 -9 -15z m-410 -50 c-18 -19 -36
-32 -39 -29 -6 6 54 64 66 64 4 0 -8 -16 -27 -35z m255 -24 c3 -5 0 -13 -6
-17 -8 -5 -9 -3 -4 6 6 10 4 12 -9 7 -10 -4 -15 -3 -11 3 8 13 22 13 30 1z
m389 -378 c-9 -16 -42 -59 -73 -98 -52 -65 -56 -68 -62 -45 -6 23 -9 20 -13
-12 -1 -15 -26 -23 -26 -8 0 14 45 60 59 60 6 0 8 6 5 13 -3 8 11 25 34 41 22
15 50 38 62 51 31 33 37 32 14 -2z m-34 -84 c-7 -11 -14 -18 -17 -15 -3 3 0
12 7 21 18 21 23 19 10 -6z m-380 7 c0 -2 -8 -10 -17 -17 -16 -13 -17 -12 -4
4 13 16 21 21 21 13z m-100 -71 c0 -2 -10 -10 -22 -16 -21 -11 -22 -11 -9 4
13 16 31 23 31 12z m120 -27 c-24 -39 -26 -55 -5 -38 8 6 20 10 27 7 9 -4 9
-6 -2 -6 -8 -1 -22 -16 -30 -34 -8 -17 -25 -37 -38 -43 -30 -15 -41 -27 -17
-19 20 6 20 6 1 -9 -10 -8 -23 -13 -27 -10 -5 2 -16 0 -26 -6 -13 -8 -26 -9
-46 -1 -45 17 -44 18 128 154 26 20 49 37 51 37 2 0 -5 -15 -16 -32z m40 3
c-6 -12 -15 -21 -21 -21 -10 0 -5 13 14 38 15 19 20 7 7 -17z m255 -24 c-14
-22 -47 -44 -51 -35 -1 2 -10 -4 -20 -13 -25 -21 -54 -31 -54 -18 0 5 7 23 15
39 15 28 75 58 94 46 5 -4 13 -1 16 5 4 5 9 8 12 6 2 -3 -3 -17 -12 -30z
m-181 -42 c-21 -24 -40 -42 -43 -40 -4 5 68 85 77 85 1 0 -14 -20 -34 -45z
m50 -8 c-3 -9 -9 -15 -14 -12 -4 2 -12 -7 -19 -22 -6 -14 -14 -23 -18 -20 -3
4 -14 2 -25 -4 -37 -20 -29 -1 19 44 46 44 71 50 57 14z m-299 3 c-10 -11 -23
-20 -28 -20 -6 0 -2 9 8 20 10 11 23 20 28 20 6 0 2 -9 -8 -20z m-125 -5 c0
-2 -10 -9 -22 -15 -22 -11 -22 -10 -4 4 21 17 26 19 26 11z m30 -87 c0 -5 -7
-7 -16 -4 -8 3 -13 2 -10 -3 3 -5 -1 -14 -8 -20 -11 -10 -14 -9 -12 2 5 35 46
57 46 25z m28 -16 c-12 -15 -11 -16 4 -4 16 13 87 8 74 -5 -12 -12 -90 -12
-98 0 -6 9 -8 9 -8 0 0 -7 -5 -13 -12 -13 -6 0 -1 11 12 25 25 26 49 24 28 -3z
m299 12 c3 -8 -8 -11 -29 -9 -45 5 -46 5 -23 15 25 11 47 8 52 -6z m139 1
c-22 -17 -71 -21 -61 -5 4 6 11 8 16 5 5 -4 17 -1 26 4 27 16 41 12 19 -4z
m-151 -53 c-4 -9 -8 -24 -9 -32 -2 -9 -21 -18 -50 -24 -49 -9 -71 -2 -46 14 8
6 11 10 5 10 -5 0 -1 7 9 15 14 11 16 15 5 15 -8 -1 -34 -36 -59 -78 -25 -42
-53 -78 -62 -80 -26 -5 -22 10 15 50 17 20 33 42 35 50 2 7 14 27 26 43 21 27
30 30 80 32 51 1 57 0 51 -15z m75 8 c-8 -5 -19 -10 -25 -10 -5 0 -3 5 5 10 8
5 20 10 25 10 6 0 3 -5 -5 -10z m45 -8 c-19 -16 -65 -32 -65 -22 0 5 15 14 33
19 43 12 42 12 32 3z m-103 -34 c-7 -7 -12 -8 -12 -2 0 14 12 26 19 19 2 -3
-1 -11 -7 -17z m118 -3 c0 -3 -12 -10 -26 -15 -14 -6 -22 -15 -19 -20 6 -10
-87 -60 -112 -60 -6 0 -13 -5 -15 -12 -3 -7 -33 -14 -77 -16 l-74 -4 32 46
c23 32 38 45 54 45 26 -2 219 30 226 36 6 7 11 6 11 0z m-300 -9 c0 -2 -8 -10
-17 -17 -16 -13 -17 -12 -4 4 13 16 21 21 21 13z m-56 -66 c-18 -30 -42 -45
-53 -34 -5 4 56 63 67 64 2 0 -5 -13 -14 -30z m95 -64 c2 2 9 -3 15 -12 9 -12
17 -13 39 -5 15 6 27 7 27 2 0 -5 -11 -12 -24 -15 -13 -3 -32 -9 -43 -12 -15
-5 -16 -4 -3 6 12 9 10 10 -10 3 -14 -4 -44 -8 -67 -8 -35 0 -39 -2 -30 -14 9
-11 9 -13 0 -8 -6 4 -24 2 -39 -3 -34 -13 -40 -8 -20 22 9 14 13 28 9 33 -5 4
-3 5 3 2 7 -4 17 -1 23 6 8 10 25 12 63 6 29 -3 55 -5 57 -3z m116 -6 c-3 -5
-11 -10 -16 -10 -6 0 -7 5 -4 10 3 6 11 10 16 10 6 0 7 -4 4 -10z m208 -2 c-4
-7 -8 -16 -8 -20 0 -3 -4 -10 -9 -15 -5 -5 -6 -3 -2 5 11 19 -5 14 -30 -9 -12
-11 -28 -21 -35 -23 -8 -1 -23 -7 -34 -13 -30 -16 -119 -25 -146 -14 -13 5
-17 10 -9 11 13 0 13 1 0 10 -13 8 -13 10 2 10 9 0 18 -5 20 -10 2 -6 20 -2
45 10 44 21 81 28 53 10 -8 -5 -10 -10 -4 -10 6 0 23 9 38 21 14 11 40 22 58
24 17 3 36 9 42 15 14 14 29 13 19 -2z m-378 -67 c-3 -5 3 -11 12 -14 10 -2 0
-4 -22 -3 -22 0 -60 -4 -85 -8 -32 -6 -42 -5 -35 2 6 6 33 15 60 20 68 13 77
13 70 3z m-235 -32 c0 -5 -7 -9 -15 -9 -9 0 -12 6 -9 15 6 15 24 11 24 -6z
m340 -5 c0 -2 -28 -3 -62 -3 -51 1 -56 3 -28 8 34 6 90 3 90 -5z m288 -160
c-3 -3 -28 -14 -54 -25 -43 -17 -45 -19 -14 -14 24 4 31 3 21 -3 -12 -9 -12
-11 0 -15 8 -2 6 -3 -3 -2 -10 2 -21 -1 -24 -6 -3 -5 -22 -9 -42 -8 -34 1 -35
2 -12 10 17 6 9 7 -26 3 -32 -4 -54 -1 -59 5 -3 6 1 11 11 11 18 0 114 26 149
40 23 10 61 13 53 4z m47 -14 c-3 -5 -11 -10 -16 -10 -6 0 -7 5 -4 10 3 6 11
10 16 10 6 0 7 -4 4 -10z m-40 -10 c-3 -5 -12 -10 -18 -10 -7 0 -6 4 3 10 19
12 23 12 15 0z m-235 -315 c-34 -13 -99 -20 -88 -10 6 6 84 23 108 23 8 0 -1
-6 -20 -13z m3980 5 c0 -5 -15 -10 -32 -10 -25 0 -29 3 -18 10 20 13 50 13 50
0z m-3715 -99 c-3 -5 -40 -21 -83 -34 -82 -27 -184 -39 -217 -27 -19 7 -18 8
5 14 109 26 164 33 120 14 -14 -6 -20 -12 -15 -14 6 -3 49 9 95 25 93 33 104
35 95 22z m-202 -78 c-7 -2 -19 -2 -25 0 -7 3 -2 5 12 5 14 0 19 -2 13 -5z
m44 1 c-3 -3 -12 -4 -19 -1 -8 3 -5 6 6 6 11 1 17 -2 13 -5z m-20 -90 c-3 -3
-12 -4 -19 -1 -8 3 -5 6 6 6 11 1 17 -2 13 -5z m223 -199 c-7 -8 -17 -15 -23
-15 -6 0 -2 7 9 15 25 19 30 19 14 0z m-300 -20 c-35 -14 -109 -20 -97 -9 9 9
68 22 102 22 l30 0 -35 -13z m140 -114 c-8 -5 -33 -11 -55 -14 l-40 -6 40 14
c47 16 79 20 55 6z m206 -98 c-2 -2 -10 -6 -18 -7 -7 -1 -23 -8 -35 -14 -13
-7 -23 -10 -23 -6 0 3 -11 -1 -25 -10 -27 -18 -35 -20 -35 -8 0 4 19 18 41 30
23 13 38 19 35 13 -10 -16 10 -13 24 3 6 8 18 12 26 9 8 -3 13 -8 10 -10z
m-82 -60 c-26 -20 -194 -104 -194 -98 0 3 -11 -2 -25 -11 -34 -22 -48 -14 -24
16 12 14 17 18 13 10 -5 -8 13 4 40 27 26 23 53 40 59 37 7 -2 37 4 67 14 68
22 89 24 64 5z m-134 -203 c-8 -5 -19 -10 -25 -10 -5 0 -3 5 5 10 8 5 20 10
25 10 6 0 3 -5 -5 -10z m3437 -72 c-3 -7 -5 -2 -5 12 0 14 2 19 5 13 2 -7 2
-19 0 -25z m-3502 -98 c-3 -5 -12 -10 -18 -10 -7 0 -41 -18 -76 -41 -35 -22
-65 -38 -68 -35 -6 6 135 87 165 95 2 1 0 -3 -3 -9z m-1208 -2522 c-2 -13 -4
-3 -4 22 0 25 2 35 4 23 2 -13 2 -33 0 -45z m734 -219 c-6 -16 -10 -18 -10 -7
-1 22 12 55 16 42 2 -6 -1 -22 -6 -35z m-9 -126 c1 -34 -1 -65 -5 -69 -4 -4
-8 13 -8 37 l-2 44 -6 -35 c-5 -25 -8 -8 -9 55 -3 167 23 139 30 -32z m-847
-178 c-9 -20 -19 -35 -21 -32 -3 3 2 22 11 42 23 47 30 39 10 -10z m36 -897
c-11 -18 -21 -27 -21 -20 0 16 31 64 38 58 2 -3 -5 -20 -17 -38z m-2 -82 c-7
-14 -16 -26 -21 -26 -5 0 -1 13 8 30 21 35 30 33 13 -4z m-289 20 c0 -2 -8
-10 -17 -17 -16 -13 -17 -12 -4 4 13 16 21 21 21 13z"/>
<path d="M2938 9043 c7 -3 16 -2 19 1 4 3 -2 6 -13 5 -11 0 -14 -3 -6 -6z"/>
<path d="M2370 8220 c-13 -9 -13 -10 0 -9 8 0 24 4 35 9 l20 9 -20 0 c-11 0
-27 -4 -35 -9z"/>
<path d="M2096 7443 c-6 -14 -5 -15 5 -6 7 7 10 15 7 18 -3 3 -9 -2 -12 -12z"/>
<path d="M2269 7223 c-12 -16 -12 -17 2 -6 9 7 20 9 24 5 5 -4 5 -1 1 6 -9 16
-11 15 -27 -5z"/>
<path d="M3825 9290 c2 -4 18 -13 35 -20 16 -7 27 -16 25 -20 -3 -5 -1 -11 4
-14 21 -13 3 26 -20 42 -25 18 -52 25 -44 12z"/>
<path d="M3929 9227 c9 -12 10 -17 2 -17 -7 0 -9 -4 -6 -10 3 -5 15 -10 25
-10 10 0 22 -5 26 -12 5 -8 2 -9 -10 -5 -10 4 -15 3 -11 -3 7 -12 45 -13 45
-2 0 5 -19 24 -42 42 -24 19 -37 27 -29 17z"/>
<path d="M3288 9223 c7 -3 16 -2 19 1 4 3 -2 6 -13 5 -11 0 -14 -3 -6 -6z"/>
<path d="M3116 9139 c2 -4 -8 -10 -23 -12 -27 -4 -27 -4 3 -6 18 0 47 6 65 14
l34 14 -42 -1 c-23 -1 -40 -5 -37 -9z"/>
<path d="M2408 8893 c7 -3 16 -2 19 1 4 3 -2 6 -13 5 -11 0 -14 -3 -6 -6z"/>
<path d="M2408 8863 c7 -3 16 -2 19 1 4 3 -2 6 -13 5 -11 0 -14 -3 -6 -6z"/>
<path d="M2448 8853 c7 -3 16 -2 19 1 4 3 -2 6 -13 5 -11 0 -14 -3 -6 -6z"/>
<path d="M8555 8839 c-4 -6 -5 -12 -2 -15 2 -3 7 2 10 11 7 17 1 20 -8 4z"/>
<path d="M2308 8823 c7 -3 16 -2 19 1 4 3 -2 6 -13 5 -11 0 -14 -3 -6 -6z"/>
<path d="M8449 8813 c-13 -16 -12 -17 4 -4 9 7 17 15 17 17 0 8 -8 3 -21 -13z"/>
<path d="M2095 8799 c-27 -10 -41 -18 -31 -19 26 0 86 22 86 32 0 4 -1 7 -2 7
-2 -1 -25 -10 -53 -20z"/>
<path d="M2168 8803 c6 -2 18 -2 25 0 6 3 1 5 -13 5 -14 0 -19 -2 -12 -5z"/>
<path d="M8537 8793 c-4 -3 -7 -11 -7 -17 0 -6 5 -5 12 2 6 6 9 14 7 17 -3 3
-9 2 -12 -2z"/>
<path d="M8599 8773 c-13 -16 -12 -17 4 -4 9 7 17 15 17 17 0 8 -8 3 -21 -13z"/>
<path d="M8411 8745 c-29 -33 -36 -45 -28 -45 2 0 18 18 36 40 40 49 34 53 -8
5z"/>
<path d="M8536 8745 c-17 -13 -34 -37 -52 -75 -9 -18 -39 -41 -76 -57 -38 -16
-35 -1 5 31 93 76 94 77 67 67 -41 -15 -65 -24 -70 -26 -35 -12 -58 -29 -75
-54 -18 -28 -69 -59 -88 -53 -5 1 -20 -7 -34 -18 -31 -24 -51 -26 -32 -3 19
23 -37 -13 -68 -44 -12 -13 -28 -23 -34 -23 -7 0 -24 -10 -38 -22 -14 -13 -20
-16 -13 -6 24 31 -11 27 -58 -7 -25 -18 -71 -44 -103 -57 -31 -13 -54 -28 -50
-33 5 -4 2 -5 -6 0 -12 7 -11 10 4 22 22 15 12 18 -15 3 -13 -7 -18 -6 -16 3
1 6 4 12 8 12 3 0 17 10 30 22 13 13 38 28 56 34 18 6 32 15 32 20 0 4 7 5 17
2 12 -5 14 -3 8 7 -5 8 -4 11 2 7 6 -4 25 -2 43 4 26 9 34 9 41 -2 7 -12 12
-12 29 -1 11 7 25 10 29 8 5 -3 17 4 27 16 19 21 19 21 -1 14 -17 -6 -17 -4 4
18 14 14 26 24 29 22 2 -3 29 20 60 50 30 30 59 54 64 54 4 0 8 4 8 10 0 5
-28 -13 -62 -40 -34 -28 -66 -50 -72 -50 -5 0 -26 -18 -46 -40 -38 -42 -33
-40 -150 -45 -14 0 -36 -5 -50 -10 -14 -5 -29 -9 -35 -10 -10 -1 -56 -20 -88
-36 -10 -6 -21 -8 -25 -5 -4 2 -21 -7 -37 -21 -17 -14 -24 -22 -16 -18 9 6 12
4 7 -4 -4 -6 -11 -9 -15 -7 -8 5 -179 -60 -198 -76 -7 -6 -11 -14 -8 -18 3 -4
-7 -15 -21 -25 l-25 -16 16 33 17 33 -26 -30 c-14 -16 -25 -35 -26 -41 0 -7
-7 -15 -16 -18 -15 -6 -15 -4 -3 11 7 10 1 7 -14 -6 -15 -14 -26 -29 -25 -35
3 -11 -4 -16 -21 -16 -10 0 30 104 60 155 11 19 18 39 14 45 -4 6 -1 19 5 28
7 9 -6 -3 -29 -28 -23 -25 -63 -83 -88 -130 -25 -47 -52 -92 -60 -101 -20 -24
-52 -168 -46 -207 3 -19 -2 -60 -13 -94 l-18 -61 -96 6 c-61 4 -117 14 -154
27 -106 40 -77 6 59 -69 50 -27 109 -59 132 -72 41 -23 59 -59 29 -59 -7 0
-30 -21 -51 -47 -34 -45 -37 -51 -32 -101 3 -28 13 -66 21 -84 32 -62 6 -354
-66 -753 -21 -121 -40 -254 -41 -296 -1 -67 1 -81 25 -117 15 -22 39 -49 53
-59 14 -10 47 -35 73 -55 41 -33 53 -38 100 -38 60 0 155 39 211 87 36 31 41
54 26 126 -7 35 -3 44 50 124 l58 87 15 -30 c8 -16 23 -40 33 -53 11 -13 19
-34 19 -47 0 -13 4 -24 10 -24 5 0 7 8 4 18 -3 9 6 -3 20 -28 14 -25 25 -56
26 -69 0 -36 -52 -124 -158 -265 -160 -212 -190 -258 -219 -336 -30 -82 -35
-157 -20 -333 l8 -88 -79 54 c-44 30 -101 62 -128 72 -81 29 -149 63 -229 115
-137 90 -192 114 -265 114 -95 0 -136 -11 -176 -46 -84 -74 -112 -192 -95
-396 9 -115 8 -149 -9 -274 -11 -79 -31 -179 -45 -223 -13 -44 -25 -103 -25
-131 l0 -51 -117 -119 c-65 -66 -142 -139 -171 -162 -29 -24 -75 -76 -102
-116 -27 -41 -80 -101 -118 -135 -80 -71 -98 -110 -89 -196 4 -39 0 -75 -14
-123 -24 -86 -24 -127 1 -152 38 -38 120 -21 230 48 90 56 127 97 135 151 4
25 11 51 16 57 4 6 7 28 5 50 -3 40 9 68 26 58 5 -3 16 0 25 8 15 12 15 11 4
-9 -16 -32 -1 -29 25 5 l22 27 7 -27 c8 -31 24 -38 24 -10 1 40 8 67 18 67 14
0 44 40 61 78 7 17 17 25 24 21 7 -4 8 -3 4 4 -4 7 -3 12 2 12 5 0 15 20 21
44 13 53 29 68 24 23 l-4 -32 16 35 c12 25 18 31 24 21 10 -15 18 -5 31 37 8
25 8 24 10 -13 2 -31 3 -35 9 -17 l6 24 27 -22 c15 -11 52 -25 83 -30 37 -6
85 -26 145 -61 49 -28 97 -52 107 -53 27 -2 28 84 4 212 -29 150 -39 180 -60
187 -10 3 -31 17 -45 30 -22 21 -31 23 -47 14 -33 -17 -31 -5 4 28 60 58 190
101 377 127 69 10 183 31 253 48 99 23 141 29 182 24 35 -4 86 1 151 13 55 11
136 22 180 24 l81 5 59 -55 c33 -30 102 -82 154 -116 52 -34 172 -113 265
-176 328 -220 367 -237 665 -285 256 -41 355 -48 493 -35 223 20 309 24 387
17 104 -10 115 -18 130 -92 6 -33 25 -106 42 -161 30 -97 31 -105 28 -280 -6
-517 -9 -459 43 -665 26 -102 61 -234 77 -295 16 -60 30 -121 30 -135 0 -28
-88 -286 -115 -342 -56 -109 -239 -381 -307 -456 -43 -47 -91 -108 -107 -136
-30 -54 -142 -166 -165 -166 -27 0 -133 -88 -158 -131 -30 -54 -41 -82 -28
-74 24 15 6 -18 -50 -90 -33 -43 -60 -83 -60 -90 0 -44 114 -71 263 -62 151
10 166 16 202 82 27 50 28 58 19 104 -9 44 -8 51 13 77 27 34 29 27 8 -22 -10
-25 -11 -34 -3 -32 7 3 15 15 18 27 3 12 8 21 11 19 4 -2 17 8 29 22 18 21 21
22 15 5 -3 -11 -9 -33 -11 -50 l-5 -30 17 30 c9 17 29 44 43 61 80 96 99 121
134 172 59 87 61 89 68 61 7 -27 6 -29 39 62 28 77 79 147 92 128 8 -11 8 -10
4 5 -4 11 3 33 16 55 l23 36 6 -35 7 -35 -1 40 c0 22 5 51 13 65 24 46 242
372 290 434 90 117 107 177 81 286 -12 53 -14 269 -3 288 13 20 169 -145 177
-188 22 -126 32 -263 24 -350 -4 -52 -13 -166 -19 -253 -9 -141 -13 -165 -40
-227 -16 -37 -30 -81 -30 -96 0 -33 -75 -110 -117 -120 -16 -4 -62 -29 -103
-55 -60 -38 -80 -57 -98 -94 -25 -51 -27 -59 -12 -50 29 18 1 -24 -66 -100
-47 -52 -74 -91 -71 -99 9 -23 69 -35 238 -48 l157 -11 47 38 c46 38 47 40 43
87 -4 35 -1 51 10 60 13 11 15 10 9 -4 -3 -10 -2 -18 2 -18 13 0 21 27 15 45
-4 9 -1 15 7 15 7 0 26 12 42 28 l28 27 -15 -30 c-21 -40 -12 -44 19 -6 30 35
52 42 35 12 -5 -11 -6 -29 -2 -41 8 -20 9 -19 25 17 18 43 32 65 65 106 12 16
22 33 22 39 0 5 14 43 30 85 19 47 30 93 31 126 0 38 3 47 9 32 5 -11 9 -35 9
-54 2 -69 14 -19 20 81 l6 103 18 -50 17 -50 -6 45 c-4 25 -8 67 -9 93 -2 26
-6 51 -10 55 -4 4 -5 -6 -1 -23 4 -16 4 -26 0 -22 -12 12 -14 88 -2 81 6 -4 7
2 3 16 -5 16 -4 20 5 15 9 -6 9 -3 1 14 -18 32 5 26 24 -6 14 -25 15 -25 9 -4
-4 17 -3 21 6 16 6 -4 -2 14 -18 41 -32 50 -34 86 -4 62 13 -11 13 -9 -1 12
-15 23 -15 39 -2 180 8 85 24 196 36 247 29 123 22 167 -37 236 -72 85 -131
178 -190 304 -30 64 -72 141 -94 169 l-39 52 57 37 c198 130 432 391 529 590
53 109 99 266 119 406 20 144 21 147 71 130 72 -24 113 -74 124 -155 10 -74
-33 -257 -167 -705 -14 -46 -37 -109 -51 -140 -41 -92 -53 -148 -68 -321 -8
-91 -26 -219 -39 -285 -24 -115 -28 -163 -7 -94 14 50 13 24 -4 -87 -8 -54
-14 -119 -14 -144 1 -41 3 -39 18 35 11 51 20 73 23 60 3 -11 6 7 7 40 3 89 5
104 13 99 4 -2 14 23 24 56 9 33 19 59 21 57 2 -2 0 -55 -5 -117 -5 -63 -5
-153 0 -204 5 -59 4 -117 -3 -166 -15 -102 -12 -177 11 -252 39 -131 139 -411
150 -422 7 -6 5 5 -4 28 -22 53 -43 139 -51 211 -9 80 5 62 40 -50 28 -93 86
-218 106 -231 8 -5 9 -3 4 6 -5 9 -4 11 3 6 7 -4 12 -13 12 -19 0 -7 11 -32
24 -57 13 -25 31 -69 40 -97 19 -57 30 -71 20 -25 -9 45 11 8 53 -95 21 -51
41 -93 45 -93 8 0 -10 66 -29 105 -9 17 -11 26 -6 20 13 -13 56 -96 84 -160
19 -44 22 -47 28 -27 6 22 8 19 30 -25 13 -26 25 -56 26 -65 4 -21 35 -67 35
-53 0 19 -58 153 -85 195 -23 36 -25 46 -16 68 7 13 9 34 6 46 -2 11 15 -19
38 -68 26 -54 46 -85 51 -78 4 6 1 26 -7 44 -8 18 -20 48 -26 67 -9 28 -9 32
4 21 8 -6 28 -36 45 -66 16 -30 33 -54 35 -54 3 0 1 9 -5 19 -13 26 -13 54 1
45 6 -3 20 -27 31 -51 25 -57 36 -48 14 12 -32 83 -12 83 29 0 22 -44 40 -81
41 -83 1 -1 8 0 17 4 15 5 15 9 -2 42 -22 42 -43 114 -36 121 7 7 55 -48 55
-64 0 -8 9 -19 20 -25 11 -6 26 -32 34 -58 8 -26 15 -39 15 -28 1 15 4 16 16
6 20 -17 20 1 -1 41 -8 17 -13 33 -10 36 3 3 0 15 -6 27 -10 18 -9 19 4 8 9
-7 19 -23 22 -35 7 -30 67 -139 73 -133 2 2 -1 15 -8 28 -7 12 -14 39 -15 58
0 19 -5 43 -9 54 -7 15 0 13 35 -10 23 -16 38 -30 32 -32 -6 -2 -8 -11 -5 -20
5 -14 2 -14 -17 3 -21 18 -21 16 5 -23 28 -43 44 -57 25 -23 -15 28 -12 35 7
20 15 -13 15 -12 4 9 -9 16 -9 27 -2 36 7 8 4 21 -9 41 -11 17 -20 38 -20 48
0 10 -9 30 -20 45 -11 15 -29 53 -40 86 -16 47 -17 56 -4 45 13 -11 14 -9 8
17 -4 16 -27 73 -52 128 -24 54 -62 164 -83 245 -22 80 -42 154 -45 165 -4 11
-2 16 4 12 12 -7 5 20 -27 105 -15 40 -19 63 -13 79 9 23 9 23 20 -10 17 -47
21 -35 12 35 -4 37 -8 48 -10 30 -2 -28 -3 -27 -16 15 -18 56 -21 230 -5 288
15 52 14 578 -1 625 -5 18 -13 124 -18 237 -8 210 -10 219 -69 415 -12 39 -30
121 -41 184 -36 211 -110 318 -324 466 -102 71 -153 118 -316 287 -107 110
-254 252 -326 315 -165 141 -221 168 -539 253 -266 70 -391 112 -565 185 -69
30 -137 56 -152 60 -24 6 -28 12 -28 41 0 30 2 33 18 25 9 -5 28 -21 41 -35
20 -21 81 -61 81 -53 0 1 -12 25 -26 52 -20 39 -25 43 -20 20 5 -27 4 -26 -14
9 -22 44 -23 46 -12 45 28 -5 29 5 2 27 -17 15 -28 29 -25 32 2 3 -7 20 -21
39 -14 18 -22 33 -18 33 3 0 1 7 -6 15 -7 9 -11 18 -8 20 8 8 149 -154 183
-211 24 -40 33 -49 31 -32 -1 13 -10 35 -19 48 -20 29 -23 54 -4 44 7 -4 6 0
-3 12 -8 10 -20 29 -27 40 -11 21 -10 21 22 14 l34 -8 -17 23 c-9 13 -21 20
-26 17 -5 -3 -6 0 -2 6 3 6 2 13 -4 17 -5 3 -10 11 -10 17 0 7 14 -1 31 -18
l32 -29 -18 28 c-10 15 -23 31 -29 35 -14 8 -47 75 -40 81 2 3 17 -8 32 -22
16 -15 31 -25 34 -22 3 3 32 -24 64 -60 59 -65 87 -85 60 -42 -7 12 -13 32
-11 44 1 13 -7 30 -17 40 -10 9 -18 24 -18 34 0 10 -10 25 -23 34 -13 8 -33
28 -45 44 l-22 30 30 -17 c16 -9 30 -20 30 -24 0 -4 10 -12 23 -18 12 -6 -15
24 -61 68 -46 44 -90 92 -98 108 -11 23 -5 20 29 -17 23 -26 52 -52 65 -58 13
-7 2 10 -28 40 -53 56 -58 73 -13 44 27 -18 26 -17 -6 24 -18 23 -31 45 -27
48 11 11 76 -48 94 -84 9 -20 24 -39 32 -41 11 -4 11 0 -3 16 -10 11 -19 27
-21 35 -1 8 -10 27 -21 43 -11 16 -20 31 -20 34 0 3 -6 16 -14 30 -8 17 -1 12
24 -15 64 -71 68 -75 79 -75 6 0 0 9 -14 20 -14 11 -21 20 -16 20 4 0 -8 18
-27 39 -19 22 -40 49 -47 60 -6 12 -15 19 -20 16 -11 -7 -24 13 -25 39 -1 11
-10 27 -21 36 -10 9 -32 31 -49 49 l-30 32 30 -5 c17 -3 40 -17 52 -31 12 -14
25 -25 28 -25 6 0 -57 81 -141 183 -30 37 -51 67 -46 67 12 0 187 -170 231
-225 37 -45 31 -28 -8 24 -21 28 -22 34 -8 28 11 -4 16 -3 12 4 -4 6 -12 9
-19 6 -17 -6 -70 60 -55 69 7 4 9 3 6 -3 -6 -10 15 -25 37 -27 4 -1 28 -23 53
-51 25 -27 41 -42 36 -33 -4 9 -40 52 -78 95 -39 43 -78 91 -88 106 -10 15
-21 25 -26 23 -4 -3 -16 9 -26 27 -16 28 -17 30 -2 18 16 -12 17 -12 11 5 -7
18 -6 18 16 -1 13 -11 20 -14 16 -7 -17 28 64 -32 139 -105 44 -43 73 -69 64
-58 -8 11 -25 37 -37 58 l-21 37 27 -14 c15 -8 38 -26 51 -40 14 -14 29 -26
34 -26 6 0 1 10 -11 23 -12 13 -19 27 -15 32 5 4 3 6 -2 2 -10 -5 -60 33 -170
130 l-40 35 50 -22 c28 -13 68 -32 90 -43 33 -17 38 -18 26 -4 -7 9 -21 17
-30 17 -12 0 -13 2 -3 9 13 8 9 9 -65 26 -7 2 -24 12 -38 24 -15 11 -34 17
-43 14 -13 -4 -14 -3 -3 5 11 8 9 11 -8 17 -11 3 -21 12 -21 19 0 7 -10 18
-22 24 -22 10 -21 11 8 11 17 1 37 -6 44 -14 7 -8 20 -15 30 -15 9 0 35 -13
57 -29 22 -16 49 -32 60 -35 12 -4 39 -19 60 -33 21 -14 52 -29 68 -34 l30 -8
-35 29 c-19 17 -38 30 -42 30 -4 0 -8 7 -8 15 0 8 -5 15 -10 15 -6 0 -34 24
-64 53 -29 28 -62 58 -72 65 -17 11 -16 12 10 7 26 -5 27 -4 13 10 -9 8 -28
15 -44 15 -19 0 -24 3 -15 9 11 6 7 13 -14 30 -19 15 -22 21 -10 21 9 0 16 -5
16 -11 0 -5 5 -7 12 -3 7 4 8 3 4 -4 -4 -7 -1 -12 9 -12 9 0 35 -11 58 -24 23
-14 44 -24 47 -23 19 5 92 -45 116 -80 16 -24 31 -38 33 -32 1 5 -5 19 -15 30
-9 10 -12 19 -7 19 6 0 -2 14 -18 31 -59 63 -27 51 39 -14 61 -61 71 -67 93
-58 13 5 19 10 13 10 -6 1 -25 20 -42 44 -27 38 -125 147 -182 204 l-22 22 29
3 28 4 -30 9 c-28 8 -78 45 -60 45 4 0 0 9 -9 19 -13 15 -14 20 -4 24 7 3 1 6
-14 6 -15 1 -30 6 -34 13 -5 7 -3 8 6 3 9 -5 11 -4 6 3 -4 7 -13 12 -21 12 -7
0 -15 7 -19 15 -8 23 27 19 49 -5 10 -11 23 -20 29 -20 14 0 38 -37 28 -43 -4
-2 -2 -3 4 -1 6 1 16 -2 21 -7 6 -6 10 -4 10 6 0 9 -16 29 -35 46 -19 17 -32
33 -29 36 3 2 26 -14 52 -38 35 -32 49 -39 57 -31 9 9 8 12 -3 12 -9 0 -26 11
-38 24 -21 23 -22 25 -4 29 13 3 12 5 -7 6 -14 1 -40 17 -60 36 -43 44 -33 45
17 3 21 -18 32 -25 25 -16 -8 9 -11 21 -8 26 3 5 -5 15 -19 22 -13 7 -21 18
-19 25 3 7 -13 19 -37 28 -30 12 -40 21 -36 32 4 9 1 15 -9 15 -18 0 -110 46
-119 60 -4 6 6 10 22 11 20 1 15 4 -19 11 -27 6 -48 14 -48 19 0 28 231 -54
244 -86 3 -9 11 -13 17 -10 6 4 21 -3 35 -16 13 -12 24 -19 24 -14 0 4 10 0
23 -11 12 -10 9 -4 -7 14 -17 17 -36 32 -44 32 -8 0 -12 6 -9 14 6 14 -22 46
-39 46 -5 0 -2 -5 6 -10 24 -15 -2 -11 -30 5 -23 13 -21 14 36 11 44 -2 70
-10 91 -25 16 -12 37 -23 46 -25 10 -1 36 -20 60 -42 l42 -39 -39 42 c-21 22
-36 46 -32 51 3 5 -8 15 -24 22 -17 7 -30 16 -30 21 0 4 -27 23 -60 42 -33 18
-57 37 -53 40 6 6 0 8 -47 11 -22 1 -41 16 -35 27 4 5 -1 9 -10 9 -8 0 -38 16
-66 35 -28 19 -45 35 -37 35 8 0 19 -5 24 -10 12 -12 108 6 139 27 18 12 17
13 -12 13 -17 0 -43 4 -58 10 -17 7 -24 7 -20 0 3 -6 -4 -10 -17 -11 -22 0
-22 -1 -3 -9 15 -6 8 -9 -27 -9 -27 -1 -48 4 -48 9 0 6 9 10 21 10 25 0 59 17
59 31 0 6 -7 6 -19 -1 -14 -7 -42 -7 -92 0 -79 11 -99 19 -53 21 16 0 49 4 74
7 25 3 86 6 135 6 50 0 80 2 67 4 -12 2 -20 6 -18 10 2 4 -9 8 -26 8 -17 1
-33 5 -37 10 -6 9 -9 10 -57 13 l-26 1 23 20 24 19 -43 1 c-24 0 -41 4 -38 9
3 5 -18 12 -47 16 l-52 7 50 19 c28 11 81 24 119 29 39 6 71 12 73 14 2 2 -17
7 -43 11 -35 5 -44 9 -33 16 10 7 4 8 -18 4 -18 -4 -34 -2 -38 5 -3 5 -10 8
-15 5 -4 -3 -32 -7 -62 -10 l-53 -4 40 14 40 14 -50 -4 c-27 -2 -72 -9 -99
-14 -31 -7 -54 -7 -65 -1 -12 7 -3 10 34 10 28 1 64 7 80 14 30 14 30 14 -15
9 -25 -2 -55 -5 -68 -7 -18 -3 -20 -1 -11 10 9 11 4 14 -27 14 -36 1 -38 2
-20 15 11 8 37 15 58 15 21 0 38 5 38 10 0 6 -12 10 -27 10 -16 0 -46 3 -68 7
l-40 7 35 6 c19 4 42 3 51 -1 16 -8 86 27 76 38 -4 3 -13 -1 -20 -9 -11 -11
-43 -15 -125 -15 -60 -1 -136 -5 -167 -8 -42 -6 -59 -4 -68 6 -7 8 -8 10 -3 6
5 -4 15 -2 23 5 8 6 31 15 51 19 21 4 -26 6 -113 5 -82 -2 -140 -1 -127 1 12
2 20 9 17 14 -3 5 1 6 9 3 9 -3 38 -1 65 6 27 6 89 15 138 19 l88 8 -79 2
c-73 1 -78 2 -60 16 10 8 40 15 66 15 26 0 50 5 53 10 4 7 -2 9 -17 6 -22 -5
-102 -12 -223 -21 -71 -5 -94 4 -68 27 21 18 63 32 146 48 31 6 57 15 57 20 0
5 -9 7 -20 5 -11 -2 -22 0 -25 5 -5 8 10 13 74 25 14 2 29 10 35 16 8 9 8 10
0 6 -6 -4 -27 -8 -47 -11 -49 -6 -81 -17 -89 -30 -6 -8 -8 -7 -8 1 0 9 -7 10
-26 3 -14 -6 -39 -12 -56 -15 -28 -5 -30 -4 -18 10 8 9 34 28 59 41 25 14 37
22 26 19 -11 -4 -25 -8 -30 -9 -6 -1 -24 -11 -40 -22 -17 -12 -42 -24 -57 -28
-16 -3 -28 -11 -28 -16 0 -5 -6 -7 -14 -4 -8 3 -17 1 -21 -5 -3 -6 -11 -11
-16 -11 -6 0 -7 5 -3 12 4 7 -10 2 -32 -11 -32 -19 -36 -20 -23 -5 9 11 14 24
12 31 -2 6 1 14 6 18 7 4 9 -1 5 -12 -4 -16 -4 -16 8 1 7 10 24 32 36 47 13
16 19 29 12 29 -6 0 -8 5 -5 10 4 6 11 7 17 4 7 -4 8 -2 4 5 -5 8 -17 4 -38
-14 -35 -29 -51 -26 -23 5 33 37 10 21 -48 -33 -32 -29 -66 -53 -77 -54 -26
-2 -26 0 11 42 21 23 25 33 14 28 -14 -5 -16 -3 -10 7 5 9 4 11 -3 6 -7 -4
-12 -13 -12 -19 0 -16 -119 -121 -127 -113 -4 3 14 24 38 46 24 22 49 45 54
51 6 6 25 27 43 45 28 29 30 34 14 34 -10 0 -27 -9 -36 -19 -10 -11 -24 -17
-32 -14 -8 3 -14 1 -14 -5 0 -5 -7 -12 -14 -15 -10 -4 -13 -1 -10 8 5 13 23
24 34 21 6 -1 12 3 88 69 64 55 57 59 -12 6 -76 -57 -86 -59 -36 -6 29 31 36
42 19 31 -14 -9 -29 -13 -34 -9 -4 5 -5 2 0 -6 6 -10 4 -12 -4 -6 -8 4 -24 -4
-42 -21 l-30 -28 16 31 c14 28 40 46 70 48 5 0 11 9 13 20 2 11 0 16 -5 10 -9
-11 -49 -35 -59 -35 -4 0 -1 7 6 15 6 8 9 19 5 24 -3 6 -1 21 5 33 8 17 5 16
-11 -5 -12 -16 -31 -33 -43 -38 -35 -16 -65 -35 -86 -54 -39 -35 -31 -6 9 34
23 23 38 41 34 41 -4 0 6 14 22 30 16 17 25 30 20 30 -10 0 -168 -162 -169
-174 -1 -5 -12 -16 -26 -25 -22 -14 -24 -14 -13 0 7 9 10 18 7 21 -3 3 30 41
73 84 56 56 65 67 31 40 -26 -20 -45 -30 -42 -22 8 21 -3 20 -33 -4 -14 -11
-30 -20 -35 -20 -11 0 29 60 52 77 22 16 9 24 -14 8z m195 -77 c-4 -13 -18
-28 -30 -34 -13 -7 -18 -13 -11 -16 6 -2 -20 -36 -59 -77 -39 -40 -71 -69 -71
-64 0 5 20 31 45 56 45 47 60 72 28 46 -13 -11 -15 -11 -9 -1 4 7 19 17 33 23
13 5 21 13 18 19 -3 5 9 23 27 39 40 37 39 37 29 9z m-321 2 c0 -5 -10 -15
-22 -21 -23 -12 -23 -12 -4 10 21 23 26 26 26 11z m73 -58 c-3 -12 -9 -22 -14
-22 -5 0 -3 11 3 25 13 30 20 28 11 -3z m-53 -24 c0 6 4 12 8 12 5 0 9 -6 9
-14 0 -7 -7 -13 -16 -11 -9 1 -28 -9 -43 -23 -36 -33 -36 -23 -1 17 19 22 29
27 35 18 6 -9 8 -9 8 1z m-152 -38 c-7 -11 -17 -20 -22 -20 -5 0 -18 -8 -28
-17 -18 -16 -18 -16 -12 0 3 9 9 17 14 17 4 0 17 9 30 20 13 11 25 20 27 20 2
0 -2 -9 -9 -20z m-99 -23 c-2 -2 -20 -14 -39 -27 l-35 -24 24 27 c14 15 31 27
39 27 9 0 13 -1 11 -3z m19 -17 c-7 -11 -19 -22 -28 -25 -8 -4 -4 5 9 19 29
31 36 33 19 6z m557 -20 c-3 -5 -16 -15 -28 -21 -22 -12 -22 -12 -3 10 19 21
43 30 31 11z m160 -20 c-10 -11 -21 -17 -24 -14 -3 3 3 12 13 20 28 20 32 17
11 -6z m-905 -9 c-12 -24 -51 -53 -59 -45 -5 4 57 63 67 64 1 0 -2 -9 -8 -19z
m855 -41 c-10 -11 -21 -18 -23 -15 -3 3 3 12 14 20 27 20 30 18 9 -5z m-941
-42 c-14 -25 -47 -57 -54 -53 -3 2 -28 -14 -54 -35 -27 -22 -50 -40 -53 -40
-2 0 10 17 26 38 31 38 68 70 86 73 6 1 19 8 30 15 24 17 28 18 19 2z m-109
-37 c3 -5 -4 -16 -15 -24 -10 -7 -33 -31 -51 -53 -27 -34 -113 -83 -125 -71
-2 2 12 22 31 44 19 23 35 45 35 50 0 14 59 55 70 48 5 -3 11 -1 15 5 8 13 32
13 40 1z m-275 -5 c0 -2 -7 -7 -16 -10 -8 -3 -12 -2 -9 4 6 10 25 14 25 6z
m1680 -96 c-8 -5 -26 -9 -40 -9 l-25 1 25 8 c14 4 32 8 40 9 13 1 13 0 0 -9z
m-1604 -42 c-11 -15 -16 -18 -16 -7 0 16 21 42 28 34 2 -2 -3 -14 -12 -27z
m1873 -28 c-9 -5 -36 -12 -60 -15 l-44 -5 30 14 c34 17 101 22 74 6z m-112 -6
c-3 -3 -12 -4 -19 -1 -8 3 -5 6 6 6 11 1 17 -2 13 -5z m-17 -34 c-8 -5 -24
-10 -35 -10 -17 0 -17 2 -5 10 8 5 24 10 35 10 17 0 17 -2 5 -10z m119 -4
c-11 -9 -69 -15 -64 -6 3 6 20 10 37 10 17 0 29 -2 27 -4z m-2239 -337 c0 -5
-4 -9 -10 -9 -5 0 -10 7 -10 16 0 8 5 12 10 9 6 -3 10 -10 10 -16z m2667 15
c-3 -3 -12 -4 -19 -1 -8 3 -5 6 6 6 11 1 17 -2 13 -5z m18 -234 c3 -6 -1 -7
-9 -4 -18 7 -21 14 -7 14 6 0 13 -4 16 -10z m90 -30 c3 -5 1 -10 -4 -10 -6 0
-11 5 -11 10 0 6 2 10 4 10 3 0 8 -4 11 -10z m-110 -180 c18 -8 17 -9 -7 -9
-16 -1 -28 4 -28 9 0 12 8 12 35 0z m70 -10 c3 -5 2 -10 -4 -10 -5 0 -13 5
-16 10 -3 6 -2 10 4 10 5 0 13 -4 16 -10z m-50 -211 c5 -5 -5 -4 -23 2 -17 6
-32 13 -32 16 0 7 43 -8 55 -18z m57 -45 c9 -9 15 -21 11 -27 -3 -6 -1 -7 6
-3 13 9 108 -80 97 -91 -3 -3 -16 3 -29 15 -13 12 -27 22 -33 22 -5 0 -27 16
-49 35 -31 27 -35 35 -21 35 27 0 16 8 -18 14 -16 3 -34 11 -40 17 -17 18 54
2 76 -17z m-242 -114 c-8 -5 -19 -10 -25 -10 -5 0 -3 5 5 10 8 5 20 10 25 10
6 0 3 -5 -5 -10z m25 -250 c10 -11 16 -20 13 -20 -3 0 -13 9 -23 20 -10 11
-16 20 -13 20 3 0 13 -9 23 -20z m250 -20 c3 -5 2 -10 -4 -10 -5 0 -13 5 -16
10 -3 6 -2 10 4 10 5 0 13 -4 16 -10z m-2272 -52 c4 -10 4 -18 2 -18 -6 0 -35
56 -35 67 0 10 25 -27 33 -49z m-55 -68 c17 -42 40 -93 52 -113 21 -35 22 -42
10 -77 -15 -46 -23 -44 -51 13 l-21 42 27 -25 28 -25 -19 27 c-10 15 -22 28
-26 28 -5 0 -8 6 -8 13 0 8 -10 22 -21 33 -12 10 -28 34 -36 52 -12 29 -11 36
8 73 11 23 22 39 24 37 2 -1 17 -37 33 -78z m2185 -73 c-2 -4 -9 -5 -14 -1 -5
3 -7 9 -4 13 2 5 -7 19 -20 31 -14 13 -25 28 -25 34 0 6 16 -7 34 -29 19 -22
32 -43 29 -48z m-34 -144 c34 -34 35 -35 6 -18 -36 21 -55 44 -54 64 0 12 2
13 6 3 3 -8 22 -30 42 -49z m89 -57 c51 -48 56 -68 6 -29 -19 15 -44 46 -55
68 -10 22 -14 31 -7 20 7 -11 32 -38 56 -59z m-28 -41 c13 -14 19 -25 13 -25
-5 0 -20 11 -33 25 -13 14 -19 25 -13 25 5 0 20 -11 33 -25z m205 -375 c3 -5
2 -10 -4 -10 -5 0 -13 5 -16 10 -3 6 -2 10 4 10 5 0 13 -4 16 -10z m-284 -107
c13 -16 12 -17 -3 -4 -10 7 -18 15 -18 17 0 8 8 3 21 -13z m32 -41 c10 -10 14
-21 11 -24 -3 -4 -1 -16 6 -27 19 -37 2 -23 -29 24 -30 45 -22 64 12 27z m-23
-33 c0 -18 -18 -9 -23 12 -4 16 -3 18 9 8 8 -6 14 -15 14 -20z m-3043 -625
c48 -57 91 -104 95 -104 5 0 8 -4 8 -10 0 -8 -48 -24 -250 -85 -24 -8 -46 -12
-48 -10 -9 9 -3 78 7 84 6 4 13 25 16 47 2 22 11 78 20 124 8 47 15 89 15 94
0 15 42 -28 137 -140z m5370 -1661 c-2 -21 -4 -6 -4 32 0 39 2 55 4 38 2 -18
2 -50 0 -70z m20 -225 c-3 -7 -5 -2 -5 12 0 14 2 19 5 13 2 -7 2 -19 0 -25z
m10 -200 c-2 -29 -3 -8 -3 47 0 55 1 79 3 53 2 -26 2 -71 0 -100z m-740 20
c-3 -7 -5 -2 -5 12 0 14 2 19 5 13 2 -7 2 -19 0 -25z m-10 -60 c-3 -7 -5 -2
-5 12 0 14 2 19 5 13 2 -7 2 -19 0 -25z m-33 -167 c-4 -17 -9 -30 -11 -27 -3
2 -2 19 2 36 9 41 17 33 9 -9z m23 -23 c-3 -8 -6 -5 -6 6 -1 11 2 17 5 13 3
-3 4 -12 1 -19z m760 -125 c-2 -16 -4 -5 -4 22 0 28 2 40 4 28 2 -13 2 -35 0
-50z m-10 -55 c-3 -8 -6 -5 -6 6 -1 11 2 17 5 13 3 -3 4 -12 1 -19z m-648
-581 c6 -16 11 -36 10 -45 -1 -29 -59 157 -65 206 -3 34 2 22 20 -43 13 -49
29 -103 35 -118z m181 -332 c0 -5 -5 -3 -10 5 -5 8 -10 20 -10 25 0 6 5 3 10
-5 5 -8 10 -19 10 -25z m370 -251 c0 -8 -4 -14 -8 -14 -10 0 -32 45 -32 63 1
17 40 -32 40 -49z m277 -96 c-3 -8 -6 -5 -6 6 -1 11 2 17 5 13 3 -3 4 -12 1
-19z m82 -28 c11 -24 11 -24 -3 -6 -9 11 -16 24 -16 30 0 12 5 7 19 -24z
m-1646 -25 c-3 -9 -8 -14 -10 -11 -3 3 -2 9 2 15 9 16 15 13 8 -4z"/>
<path d="M7626 6587 c3 -10 9 -15 12 -12 3 3 0 11 -7 18 -10 9 -11 8 -5 -6z"/>
<path d="M2208 8743 c6 -2 18 -2 25 0 6 3 1 5 -13 5 -14 0 -19 -2 -12 -5z"/>
<path d="M8466 8735 c-11 -8 -15 -15 -9 -15 6 0 16 7 23 15 16 19 11 19 -14 0z"/>
<path d="M2278 8733 c7 -3 16 -2 19 1 4 3 -2 6 -13 5 -11 0 -14 -3 -6 -6z"/>
<path d="M8765 8700 c-3 -5 -1 -10 4 -10 6 0 11 5 11 10 0 6 -2 10 -4 10 -3 0
-8 -4 -11 -10z"/>
<path d="M2110 8680 c-9 -6 -10 -10 -3 -10 6 0 15 5 18 10 8 12 4 12 -15 0z"/>
<path d="M8290 8645 c-13 -14 -25 -32 -26 -41 -1 -9 0 -14 3 -11 2 3 4 8 3 12
-1 4 11 20 26 36 15 16 25 29 23 29 -3 0 -16 -11 -29 -25z"/>
<path d="M9630 8620 c-19 -11 -42 -19 -51 -20 -8 0 -24 -7 -35 -16 -10 -8 -13
-13 -7 -9 7 3 25 7 40 9 26 4 103 42 103 52 0 8 -15 3 -50 -16z"/>
<path d="M8960 8609 c0 -5 5 -7 10 -4 6 3 10 8 10 11 0 2 -4 4 -10 4 -5 0 -10
-5 -10 -11z"/>
<path d="M4963 8513 c9 -2 25 -2 35 0 9 3 1 5 -18 5 -19 0 -27 -2 -17 -5z"/>
<path d="M9002 8498 c-59 -37 -27 -29 37 10 2 1 2 4 0 6 -3 3 -19 -4 -37 -16z"/>
<path d="M5088 8503 c7 -3 16 -2 19 1 4 3 -2 6 -13 5 -11 0 -14 -3 -6 -6z"/>
<path d="M7906 8435 c-11 -8 -15 -15 -9 -15 6 0 16 7 23 15 16 19 11 19 -14 0z"/>
<path d="M2038 8433 c7 -3 16 -2 19 1 4 3 -2 6 -13 5 -11 0 -14 -3 -6 -6z"/>
<path d="M9454 8424 c-18 -14 -18 -15 4 -4 12 6 22 13 22 15 0 8 -5 6 -26 -11z"/>
<path d="M9298 8423 c7 -3 16 -2 19 1 4 3 -2 6 -13 5 -11 0 -14 -3 -6 -6z"/>
<path d="M9330 8420 c0 -13 11 -13 30 0 12 8 11 10 -7 10 -13 0 -23 -4 -23
-10z"/>
<path d="M1864 8375 c-10 -8 -14 -14 -9 -14 6 0 19 6 29 14 11 8 15 15 10 15
-6 0 -19 -7 -30 -15z"/>
<path d="M2044 8364 c-18 -14 -18 -15 4 -4 12 6 22 13 22 15 0 8 -5 6 -26 -11z"/>
<path d="M1770 8289 c-35 -31 -35 -31 -3 -9 18 11 35 25 38 30 10 16 2 11 -35
-21z"/>
<path d="M2218 8263 c7 -3 16 -2 19 1 4 3 -2 6 -13 5 -11 0 -14 -3 -6 -6z"/>
<path d="M9425 8255 l-30 -14 30 6 c17 3 41 10 55 14 l25 7 -25 1 c-14 0 -38
-6 -55 -14z"/>
<path d="M2170 8250 c-8 -5 -10 -10 -5 -10 6 0 17 5 25 10 8 5 11 10 5 10 -5
0 -17 -5 -25 -10z"/>
<path d="M9605 8170 c3 -5 12 -7 20 -3 21 7 19 13 -6 13 -11 0 -18 -4 -14 -10z"/>
<path d="M1799 8113 c-13 -16 -12 -17 4 -4 9 7 17 15 17 17 0 8 -8 3 -21 -13z"/>
<path d="M9678 8123 c7 -3 16 -2 19 1 4 3 -2 6 -13 5 -11 0 -14 -3 -6 -6z"/>
<path d="M1779 7993 c-13 -16 -12 -17 4 -4 16 13 21 21 13 21 -2 0 -10 -8 -17
-17z"/>
<path d="M2063 7989 c-18 -12 -33 -23 -33 -25 0 -7 58 25 65 36 9 14 5 13 -32
-11z"/>
<path d="M9803 7983 c9 -2 23 -2 30 0 6 3 -1 5 -18 5 -16 0 -22 -2 -12 -5z"/>
<path d="M10395 7843 c11 -3 24 -9 30 -14 5 -5 25 -9 45 -8 29 0 32 2 14 9
-12 5 -41 10 -65 13 -24 2 -35 2 -24 0z"/>
<path d="M1739 7803 c-13 -16 -12 -17 4 -4 9 7 17 15 17 17 0 8 -8 3 -21 -13z"/>
<path d="M9943 7763 c9 -2 23 -2 30 0 6 3 -1 5 -18 5 -16 0 -22 -2 -12 -5z"/>
<path d="M9873 7753 c9 -2 23 -2 30 0 6 3 -1 5 -18 5 -16 0 -22 -2 -12 -5z"/>
<path d="M10013 7753 c9 -2 23 -2 30 0 6 3 -1 5 -18 5 -16 0 -22 -2 -12 -5z"/>
<path d="M10073 7743 c9 -2 25 -2 35 0 9 3 1 5 -18 5 -19 0 -27 -2 -17 -5z"/>
<path d="M1855 7400 c-27 -30 -12 -34 15 -5 13 14 19 25 13 25 -5 0 -18 -9
-28 -20z"/>
<path d="M1568 7363 c7 -3 16 -2 19 1 4 3 -2 6 -13 5 -11 0 -14 -3 -6 -6z"/>
<path d="M1503 7353 c9 -2 23 -2 30 0 6 3 -1 5 -18 5 -16 0 -22 -2 -12 -5z"/>
<path d="M10095 7320 c11 -5 29 -9 40 -9 l20 0 -20 9 c-11 5 -29 9 -40 9 l-20
0 20 -9z"/>
<path d="M1700 7280 c-14 -11 -20 -20 -14 -20 6 0 19 9 29 20 23 25 17 25 -15
0z"/>
<path d="M1657 7229 c-4 -13 -10 -18 -18 -13 -8 4 -10 3 -5 -4 4 -7 1 -12 -7
-12 -8 0 -22 -9 -32 -20 -10 -11 -15 -20 -11 -20 9 0 80 52 84 63 2 4 10 7 18
7 8 0 14 5 14 10 0 19 -38 10 -43 -11z"/>
<path d="M1671 7199 c-45 -38 -67 -50 -83 -46 -11 3 -54 -5 -95 -19 -43 -14
-83 -22 -95 -18 -13 4 -18 2 -14 -4 4 -7 -19 -13 -61 -17 -90 -8 -107 -12 -58
-14 37 -1 104 8 184 25 24 5 32 4 27 -4 -5 -9 -1 -9 16 -3 13 5 22 13 21 19
-3 12 51 24 71 16 16 -6 171 102 157 110 -5 3 -37 -17 -70 -45z"/>
<path d="M10087 7228 c7 -8 11 -17 8 -19 -2 -3 5 -5 15 -6 26 -2 25 1 -7 23
-20 13 -25 13 -16 2z"/>
<path d="M1890 7130 c-8 -5 -12 -12 -9 -15 4 -3 12 1 19 10 14 17 11 19 -10 5z"/>
<path d="M1670 7090 c8 -5 24 -9 35 -9 l20 0 -20 9 c-11 5 -27 9 -35 9 -13 1
-13 0 0 -9z"/>
<path d="M1183 7053 c9 -2 25 -2 35 0 9 3 1 5 -18 5 -19 0 -27 -2 -17 -5z"/>
<path d="M10053 6952 c16 -17 57 -37 57 -27 0 2 -17 13 -37 25 -35 21 -37 21
-20 2z"/>
<path d="M9895 6880 c-3 -5 -1 -10 5 -10 6 0 22 -12 35 -27 13 -16 25 -23 25
-18 0 10 -46 65 -55 65 -2 0 -7 -4 -10 -10z"/>
<path d="M1590 6866 c0 -2 7 -7 16 -10 8 -3 12 -2 9 4 -6 10 -25 14 -25 6z"/>
<path d="M10273 6852 c11 -12 25 -18 35 -15 9 4 13 2 9 -4 -7 -11 42 -38 51
-28 3 3 0 5 -6 5 -6 0 -21 11 -34 24 -13 13 -34 27 -48 31 -25 8 -25 7 -7 -13z"/>
<path d="M2085 6769 c-15 -6 -11 -8 18 -8 20 -1 37 1 37 3 0 9 -37 12 -55 5z"/>
<path d="M2023 6743 c15 -2 39 -2 55 0 15 2 2 4 -28 4 -30 0 -43 -2 -27 -4z"/>
<path d="M1810 6730 c8 -5 20 -10 25 -10 6 0 3 5 -5 10 -8 5 -19 10 -25 10 -5
0 -3 -5 5 -10z"/>
<path d="M1850 6709 c0 -11 42 -15 80 -9 31 6 29 7 -23 11 -31 2 -57 1 -57 -2z"/>
<path d="M1478 6603 c7 -3 16 -2 19 1 4 3 -2 6 -13 5 -11 0 -14 -3 -6 -6z"/>
<path d="M1553 6593 c15 -2 37 -2 50 0 12 2 0 4 -28 4 -27 0 -38 -2 -22 -4z"/>
<path d="M10070 6562 c0 -4 9 -13 20 -20 22 -13 27 -3 8 16 -14 14 -28 16 -28
4z"/>
<path d="M1925 6540 c27 -12 43 -12 25 0 -8 5 -22 9 -30 9 -10 0 -8 -3 5 -9z"/>
<path d="M10170 6546 c0 -2 8 -10 18 -17 15 -13 16 -12 3 4 -13 16 -21 21 -21
13z"/>
<path d="M1453 6493 c9 -2 25 -2 35 0 9 3 1 5 -18 5 -19 0 -27 -2 -17 -5z"/>
<path d="M1695 6492 c6 -6 74 -12 152 -14 78 -2 137 0 130 3 -21 11 -293 22
-282 11z"/>
<path d="M10368 6460 c28 -26 122 -76 122 -65 0 6 -139 95 -148 95 -3 0 8 -13
26 -30z"/>
<path d="M10148 6458 c5 -5 16 -8 23 -6 8 3 3 7 -10 11 -17 4 -21 3 -13 -5z"/>
<path d="M10005 6356 c22 -19 42 -32 44 -30 8 7 -40 52 -62 58 -16 4 -11 -4
18 -28z"/>
<path d="M1925 6370 c3 -5 8 -10 11 -10 2 0 4 5 4 10 0 6 -5 10 -11 10 -5 0
-7 -4 -4 -10z"/>
<path d="M7622 6325 c0 -16 2 -22 5 -12 2 9 2 23 0 30 -3 6 -5 -1 -5 -18z"/>
<path d="M10100 6306 c0 -2 8 -10 18 -17 15 -13 16 -12 3 4 -13 16 -21 21 -21
13z"/>
<path d="M7622 6190 c0 -14 2 -19 5 -12 2 6 2 18 0 25 -3 6 -5 1 -5 -13z"/>
<path d="M10105 6200 c3 -5 11 -10 16 -10 6 0 7 5 4 10 -3 6 -11 10 -16 10 -6
0 -7 -4 -4 -10z"/>
<path d="M1893 6083 c4 -6 20 -13 37 -15 37 -6 27 8 -14 18 -19 4 -27 3 -23
-3z"/>
<path d="M10030 6076 c0 -2 8 -10 18 -17 15 -13 16 -12 3 4 -13 16 -21 21 -21
13z"/>
<path d="M1473 6033 c15 -2 39 -2 55 0 15 2 2 4 -28 4 -30 0 -43 -2 -27 -4z"/>
<path d="M1939 5943 c-13 -16 -12 -17 4 -4 16 13 21 21 13 21 -2 0 -10 -8 -17
-17z"/>
<path d="M10137 5939 c7 -7 15 -10 18 -7 3 3 -2 9 -12 12 -14 6 -15 5 -6 -5z"/>
<path d="M1818 5873 c7 -3 16 -2 19 1 4 3 -2 6 -13 5 -11 0 -14 -3 -6 -6z"/>
<path d="M1870 5854 c0 -3 12 -9 26 -14 23 -9 25 -12 13 -28 -13 -15 -12 -16
3 -3 14 11 27 11 62 2 58 -14 97 -15 76 -1 -8 5 -25 10 -38 10 -13 0 -21 4
-18 9 4 5 -2 7 -11 5 -10 -3 -39 2 -65 10 -27 8 -48 12 -48 10z"/>
<path d="M9880 5776 c0 -2 8 -10 18 -17 15 -13 16 -12 3 4 -13 16 -21 21 -21
13z"/>
<path d="M9837 5655 c10 -13 22 -25 27 -25 5 0 -1 11 -14 25 -30 32 -36 32
-13 0z"/>
<path d="M10120 5546 c0 -2 8 -10 18 -17 15 -13 16 -12 3 4 -13 16 -21 21 -21
13z"/>
<path d="M2403 5534 c4 -4 -1 -13 -11 -20 -23 -18 -1 -18 22 -1 18 13 18 14 0
21 -10 4 -15 4 -11 0z"/>
<path d="M11432 2580 c0 -19 2 -27 5 -17 2 9 2 25 0 35 -3 9 -5 1 -5 -18z"/>
<path d="M11382 2455 c0 -16 2 -22 5 -12 2 9 2 23 0 30 -3 6 -5 -1 -5 -18z"/>
<path d="M11352 2410 c0 -14 2 -19 5 -12 2 6 2 18 0 25 -3 6 -5 1 -5 -13z"/>
<path d="M862 2203 c-13 -19 -22 -36 -20 -38 2 -2 14 12 27 31 13 19 22 36 20
39 -2 2 -15 -12 -27 -32z"/>
<path d="M12264 2158 c14 -24 31 -45 37 -47 6 -2 -3 17 -20 43 -40 58 -51 60
-17 4z"/>
<path d="M861 2142 c-17 -31 -13 -40 5 -14 9 13 14 26 11 29 -3 2 -10 -4 -16
-15z"/>
<path d="M12360 2127 c0 -5 11 -23 25 -41 14 -18 25 -38 25 -44 0 -6 4 -13 10
-17 16 -10 -9 48 -35 80 -14 17 -25 26 -25 22z"/>
<path d="M12260 2064 c0 -5 5 -15 12 -22 7 -7 9 -12 5 -12 -4 0 0 -14 8 -31
22 -41 27 -33 11 14 -13 37 -36 70 -36 51z"/>
<path d="M11431 2034 c0 -11 3 -14 6 -6 3 7 2 16 -1 19 -3 4 -6 -2 -5 -13z"/>
<path d="M11457 1945 c9 -61 24 -99 17 -45 -4 25 -10 54 -15 65 -6 13 -6 6 -2
-20z"/>
<path d="M12275 1935 c67 -208 94 -280 95 -255 0 14 -73 226 -86 248 -9 16
-13 19 -9 7z"/>
<path d="M1645 1888 c-4 -26 -11 -45 -16 -42 -5 3 -6 -2 -3 -10 3 -8 -11 -51
-31 -96 -20 -45 -35 -84 -32 -86 15 -15 104 241 94 269 -2 7 -8 -9 -12 -35z"/>
<path d="M12350 1910 c6 -11 12 -20 14 -20 2 0 2 9 -1 20 -3 11 -9 20 -15 20
-5 0 -4 -9 2 -20z"/>
<path d="M11481 1834 c0 -11 3 -14 6 -6 3 7 2 16 -1 19 -3 4 -6 -2 -5 -13z"/>
<path d="M1556 1785 c-9 -26 -7 -32 5 -12 6 10 9 21 6 23 -2 3 -7 -2 -11 -11z"/>
<path d="M11492 1780 c0 -14 2 -19 5 -12 2 6 2 18 0 25 -3 6 -5 1 -5 -13z"/>
<path d="M11452 1770 c0 -14 2 -19 5 -12 2 6 2 18 0 25 -3 6 -5 1 -5 -13z"/>
<path d="M1566 1733 c-15 -28 -15 -28 -16 -4 0 38 -8 21 -30 -65 -22 -89 -24
-104 -11 -104 4 0 11 18 14 40 3 22 19 67 36 100 17 33 29 60 27 60 -3 0 -12
-12 -20 -27z"/>
<path d="M11461 1724 c0 -11 3 -14 6 -6 3 7 2 16 -1 19 -3 4 -6 -2 -5 -13z"/>
<path d="M11550 1704 c0 -10 5 -26 10 -34 8 -11 9 -7 4 15 -8 37 -14 45 -14
19z"/>
<path d="M11500 1645 c0 -16 7 -43 16 -60 9 -16 25 -55 35 -85 10 -30 18 -48
18 -40 1 8 -15 60 -34 115 -23 67 -35 90 -35 70z"/>
<path d="M656 1598 c-9 -21 -16 -41 -16 -46 0 -5 -26 -37 -57 -73 -44 -48 -50
-58 -25 -41 52 38 129 157 119 185 -3 7 -12 -5 -21 -25z"/>
<path d="M670 1559 c-6 -11 -10 -25 -7 -32 2 -6 9 3 15 21 12 36 8 42 -8 11z"/>
<path d="M1532 1550 c0 -14 2 -19 5 -12 2 6 2 18 0 25 -3 6 -5 1 -5 -13z"/>
<path d="M1516 1484 c-4 -14 -5 -28 -3 -31 3 -2 8 8 11 23 4 14 5 28 3 31 -3
2 -8 -8 -11 -23z"/>
<path d="M11521 1494 c0 -11 3 -14 6 -6 3 7 2 16 -1 19 -3 4 -6 -2 -5 -13z"/>
<path d="M11511 1354 c0 -11 3 -14 6 -6 3 7 2 16 -1 19 -3 4 -6 -2 -5 -13z"/>
<path d="M11851 1335 c0 -21 28 -78 29 -59 0 7 -7 27 -15 45 -10 24 -14 28
-14 14z"/>
<path d="M767 1304 c-4 -4 -7 -14 -7 -23 0 -11 3 -12 11 -4 6 6 10 16 7 23 -2
6 -7 8 -11 4z"/>
<path d="M768 1168 c-14 -33 -15 -38 -2 -27 23 19 37 50 27 60 -4 4 -16 -10
-25 -33z"/>
<path d="M11911 1195 c0 -5 6 -21 14 -35 8 -14 14 -20 14 -15 0 6 -6 21 -14
35 -8 14 -14 21 -14 15z"/>
<path d="M977 1183 c-4 -3 -7 -11 -7 -17 0 -6 5 -5 12 2 6 6 9 14 7 17 -3 3
-9 2 -12 -2z"/>
<path d="M12280 1181 c0 -5 5 -13 10 -16 6 -3 10 -2 10 4 0 5 -4 13 -10 16 -5
3 -10 2 -10 -4z"/>
<path d="M776 1123 c-6 -14 -5 -15 5 -6 7 7 10 15 7 18 -3 3 -9 -2 -12 -12z"/>
<path d="M12440 1085 c0 -12 24 -55 32 -55 14 0 9 28 -8 44 -15 16 -24 20 -24
11z"/>
<path d="M12290 1064 c0 -13 18 -39 24 -34 2 3 -2 14 -10 24 -8 11 -14 16 -14
10z"/>
<path d="M1080 841 c0 -5 5 -13 10 -16 6 -3 10 -2 10 4 0 5 -4 13 -10 16 -5 3
-10 2 -10 -4z"/>
</g>
</svg>
