<?xml version="1.0" standalone="no"?>
<!DOCTYPE svg PUBLIC "-//W3C//DTD SVG 20010904//EN"
 "http://www.w3.org/TR/2001/REC-SVG-20010904/DTD/svg10.dtd">
<svg version="1.0" xmlns="http://www.w3.org/2000/svg"
 width="1280.000000pt" height="1179.000000pt" viewBox="0 0 1280.000000 1179.000000"
 preserveAspectRatio="xMidYMid meet">
<metadata>
Created by potrace 1.15, written by Peter Selinger 2001-2017
</metadata>
<g transform="translate(0.000000,1179.000000) scale(0.100000,-0.100000)"
fill="#000000" stroke="none">
<path d="M12700 11704 c-47 -42 -121 -111 -165 -153 -44 -43 -102 -95 -130
-116 -27 -22 -88 -76 -135 -120 -47 -45 -116 -104 -155 -133 -38 -28 -97 -78
-130 -112 -33 -34 -96 -85 -140 -115 -45 -29 -110 -84 -146 -122 -39 -40 -92
-82 -130 -103 -37 -20 -95 -67 -139 -110 -41 -41 -91 -83 -112 -92 -21 -9 -59
-32 -85 -49 l-48 -33 40 50 c21 27 63 77 92 112 117 140 213 290 213 335 0 16
-72 -3 -125 -33 -75 -43 -238 -166 -341 -258 -51 -45 -97 -82 -103 -82 -6 0
12 28 40 63 154 193 301 413 315 471 7 29 6 29 -27 22 -95 -19 -372 -190 -624
-385 -66 -51 -163 -121 -216 -154 -198 -128 -405 -280 -520 -384 -103 -92
-313 -315 -410 -435 -124 -154 -169 -228 -292 -478 -207 -419 -377 -703 -557
-930 -221 -278 -404 -421 -616 -482 -68 -19 -102 -22 -239 -22 -389 1 -866
123 -1323 338 -76 36 -161 74 -190 85 -28 11 -157 68 -285 125 -298 134 -332
148 -512 212 -267 96 -705 211 -956 250 -137 22 -418 22 -554 0 -124 -19 -278
-58 -366 -91 l-67 -26 -163 49 c-296 90 -543 135 -734 135 -396 0 -780 -164
-1092 -466 -236 -228 -353 -423 -467 -779 -82 -256 -136 -368 -210 -436 -60
-54 -109 -72 -196 -72 -91 0 -140 33 -159 107 -15 56 1 121 43 168 26 30 40
37 83 42 77 8 54 26 -26 21 -192 -14 -327 -150 -361 -363 -20 -126 27 -262
120 -349 90 -84 193 -116 377 -116 l91 0 -13 -43 c-27 -90 -39 -223 -26 -299
22 -136 89 -315 199 -538 l107 -215 0 -80 c0 -70 -4 -87 -30 -133 -35 -64
-123 -147 -185 -176 -34 -15 -65 -20 -125 -20 -116 2 -179 29 -265 113 -106
105 -137 218 -86 326 24 52 105 134 160 162 58 29 63 63 10 63 -64 0 -142 -47
-240 -144 -72 -72 -99 -107 -130 -170 -38 -78 -39 -83 -39 -185 1 -123 16
-179 74 -268 114 -176 301 -272 532 -273 105 0 203 24 323 79 l88 41 -6 -57
c-10 -81 -51 -249 -74 -303 -51 -117 -160 -226 -287 -286 -98 -47 -174 -64
-282 -64 -110 0 -178 22 -251 80 -129 101 -207 322 -153 429 34 66 20 70 -41
9 -100 -101 -133 -212 -125 -418 6 -151 22 -199 106 -326 82 -124 173 -208
291 -266 121 -60 216 -80 380 -81 170 0 323 34 487 108 41 19 81 35 88 35 25
0 58 -139 63 -261 5 -138 -4 -174 -57 -222 -49 -45 -101 -54 -175 -33 -184 54
-171 266 17 266 63 0 73 13 36 46 -32 29 -139 26 -199 -5 -93 -48 -129 -106
-130 -206 0 -194 228 -360 448 -325 80 13 180 51 235 89 82 56 161 152 197
237 57 138 81 281 83 494 2 193 -7 266 -45 391 l-21 66 46 109 c86 204 90 226
94 514 5 274 -8 412 -72 815 -105 653 -131 904 -122 1145 10 242 44 425 122
650 83 238 248 490 413 631 129 110 307 172 482 167 l103 -3 -67 -80 c-166
-199 -349 -508 -410 -691 -50 -153 -67 -263 -73 -489 -6 -230 6 -351 52 -535
54 -212 177 -517 263 -648 55 -85 65 -121 60 -206 -6 -80 -50 -209 -128 -371
-54 -111 -209 -340 -349 -515 -159 -198 -214 -350 -163 -449 12 -22 28 -80 37
-128 9 -48 26 -131 38 -183 21 -89 22 -118 22 -470 -1 -215 -6 -433 -13 -510
-7 -74 -24 -256 -38 -405 -32 -331 -30 -386 18 -476 35 -65 36 -69 31 -150 -4
-65 0 -105 16 -174 40 -167 114 -243 366 -376 111 -59 160 -69 195 -41 35 28
32 80 -15 270 -28 113 -46 166 -71 205 -61 96 -60 90 -30 155 31 70 35 164 11
252 -36 130 -47 285 -46 640 2 369 2 379 67 715 61 317 183 637 320 840 58 86
223 277 264 306 55 39 67 35 95 -27 14 -31 55 -110 91 -176 164 -298 200 -506
183 -1042 -4 -132 -6 -243 -3 -248 3 -5 6 -36 8 -71 2 -49 10 -77 39 -133 20
-39 37 -76 37 -82 0 -6 33 -60 73 -119 113 -166 155 -249 271 -538 18 -44 60
-172 95 -285 34 -113 71 -235 83 -273 37 -121 59 -145 193 -211 177 -87 257
-171 285 -296 23 -105 80 -265 109 -311 33 -54 83 -94 126 -104 17 -4 40 -14
53 -22 13 -8 54 -26 90 -40 61 -23 81 -25 227 -26 140 -1 166 2 200 19 22 10
42 27 43 37 2 10 -12 42 -31 72 -41 61 -135 246 -163 319 -29 78 -75 117 -185
159 -107 42 -135 66 -173 147 -20 42 -26 71 -26 123 0 83 -13 110 -120 252
-319 425 -567 1068 -606 1575 -10 133 30 335 216 1085 65 264 133 554 150 645
17 91 35 187 41 215 5 27 21 68 34 91 110 188 148 308 143 459 -2 58 -1 105 2
105 3 -1 39 -51 80 -112 155 -229 306 -347 668 -524 472 -230 794 -353 1122
-427 412 -94 487 -106 805 -132 131 -11 205 -21 213 -29 11 -11 13 -116 12
-557 0 -309 4 -596 10 -663 7 -86 7 -149 -1 -222 -9 -89 -8 -119 11 -244 32
-222 43 -443 36 -775 -7 -375 -26 -607 -83 -1010 -35 -249 -39 -275 -71 -405
-15 -63 -26 -125 -24 -136 2 -12 24 -46 49 -75 71 -83 87 -127 79 -219 -8
-101 15 -235 55 -317 59 -121 201 -220 387 -270 127 -33 194 -29 235 17 33 37
33 53 3 160 -13 47 -33 128 -45 180 -24 107 -56 168 -131 254 -51 58 -52 61
-46 105 19 132 19 136 -18 284 -69 279 -85 578 -47 879 11 84 22 182 26 218
13 128 67 496 81 555 23 90 45 145 123 304 106 218 112 238 121 436 8 170 55
470 124 800 39 181 128 485 142 485 7 0 24 -4 37 -9 31 -12 38 -60 26 -176 -5
-44 -13 -150 -19 -235 -6 -85 -17 -207 -25 -270 -7 -63 -19 -160 -25 -215 -6
-55 -17 -149 -25 -210 -60 -449 -83 -675 -90 -885 -9 -276 -30 -415 -115 -740
-40 -151 -76 -299 -81 -328 -5 -29 -18 -76 -29 -105 -21 -53 -63 -211 -75
-281 -5 -31 -2 -45 18 -75 29 -43 49 -145 37 -192 -4 -19 -19 -69 -34 -111
-34 -101 -33 -152 5 -244 39 -93 102 -164 212 -238 80 -53 100 -61 218 -87
120 -25 150 19 124 182 -8 53 -15 139 -15 191 0 103 3 95 -81 200 -33 41 -29
96 12 153 l34 47 -3 187 c-2 102 1 224 8 271 20 155 97 520 145 685 45 156
154 437 205 530 142 255 161 316 140 449 -20 129 -9 321 29 501 68 321 111
459 242 786 44 109 79 202 79 208 0 6 31 44 68 84 45 49 83 104 112 162 l45
88 1 206 c0 113 4 226 8 250 17 93 65 210 116 285 96 140 205 429 256 672 37
176 37 384 0 714 -14 129 -31 289 -37 355 -14 153 -6 507 15 590 8 33 22 96
31 140 39 193 120 418 228 635 l52 104 140 23 c77 13 163 31 190 40 28 9 75
16 106 15 103 -3 451 -62 625 -107 186 -47 257 -78 357 -154 57 -43 157 -91
189 -91 64 0 184 90 235 177 34 58 73 187 73 241 0 24 -9 62 -21 85 -28 55
-179 203 -348 342 -74 61 -169 139 -211 175 -42 36 -174 142 -293 235 -181
142 -216 173 -211 190 3 11 8 32 11 47 4 19 18 35 47 52 22 13 55 39 73 58 43
46 101 135 108 169 4 18 24 40 55 63 58 42 131 130 167 202 14 27 41 61 59 74
42 28 119 116 167 190 19 30 65 84 102 120 37 36 87 92 113 125 25 33 84 101
131 151 141 149 355 384 349 384 -1 -1 -41 -35 -88 -76z"/>
</g>
</svg>
