<?xml version="1.0" standalone="no"?>
<!DOCTYPE svg PUBLIC "-//W3C//DTD SVG 20010904//EN"
 "http://www.w3.org/TR/2001/REC-SVG-20010904/DTD/svg10.dtd">
<svg version="1.0" xmlns="http://www.w3.org/2000/svg"
 width="1280.000000pt" height="1143.000000pt" viewBox="0 0 1280.000000 1143.000000"
 preserveAspectRatio="xMidYMid meet">
<metadata>
Created by potrace 1.15, written by Peter Selinger 2001-2017
</metadata>
<g transform="translate(0.000000,1143.000000) scale(0.100000,-0.100000)"
fill="#000000" stroke="none">
<path d="M4425 11418 c-108 -24 -207 -68 -282 -122 -89 -65 -200 -168 -243
-225 -46 -62 -100 -191 -100 -240 0 -11 -4 -21 -8 -23 -11 -4 -57 -150 -73
-228 -55 -275 -59 -320 -59 -762 0 -247 -4 -389 -10 -393 -5 -3 -10 -17 -10
-30 0 -12 -6 -25 -14 -28 -21 -8 -63 -107 -71 -167 -4 -29 -15 -60 -25 -70
-26 -26 -70 -171 -70 -231 0 -43 -5 -57 -34 -92 -69 -86 -126 -217 -126 -292
0 -17 -6 -39 -14 -50 -25 -36 -65 -111 -82 -156 -10 -24 -32 -66 -49 -94 -47
-74 -331 -647 -409 -825 -147 -336 -367 -889 -403 -1015 -22 -78 -77 -186
-144 -287 -55 -82 -117 -200 -191 -369 l-25 -55 -144 -13 c-176 -15 -439 -48
-496 -62 -47 -12 -86 -48 -81 -76 2 -11 27 -30 62 -47 79 -38 420 -156 452
-156 27 0 30 -7 10 -35 -30 -44 -172 -296 -219 -390 -27 -55 -84 -154 -125
-220 -173 -277 -208 -335 -298 -508 -52 -100 -104 -194 -116 -209 -12 -15 -18
-31 -14 -35 15 -16 114 -4 158 18 125 64 298 205 433 354 53 58 81 83 83 72 6
-30 -89 -271 -145 -370 -74 -130 -126 -266 -168 -439 -22 -93 -54 -188 -91
-273 -67 -157 -166 -403 -264 -660 -100 -262 -132 -327 -250 -516 -113 -180
-150 -250 -268 -510 -44 -96 -132 -268 -197 -384 -65 -115 -160 -286 -212
-380 l-93 -170 51 -3 c28 -2 57 2 64 8 8 7 18 9 23 6 4 -3 50 55 100 128 97
140 191 255 432 528 80 90 167 193 193 229 128 171 189 255 374 521 194 276
289 406 418 570 206 262 402 599 486 838 35 98 190 418 256 528 34 57 47 69
133 120 391 231 785 559 1037 863 l71 86 262 -33 c215 -28 266 -37 287 -54 31
-24 51 -26 32 -3 -13 15 -9 16 44 10 32 -3 69 -13 82 -21 21 -14 24 -14 19 -1
-5 12 -1 13 22 6 16 -5 69 -12 119 -15 52 -4 98 -13 112 -21 26 -17 37 -19 28
-5 -3 6 -4 10 -1 10 8 0 1898 -237 1951 -244 17 -3 405 -51 864 -108 544 -67
838 -107 847 -115 15 -15 36 -17 49 -4 12 11 145 -7 145 -20 0 -5 -7 -6 -15
-3 -8 4 -15 1 -15 -5 0 -14 45 -14 71 0 25 13 189 -5 200 -22 4 -8 21 -10 45
-6 31 5 641 -62 709 -78 11 -3 56 -39 100 -81 178 -168 385 -332 590 -467 101
-66 137 -96 163 -134 17 -27 32 -53 32 -59 0 -5 28 -57 63 -114 35 -58 89
-155 121 -215 71 -133 198 -363 279 -505 33 -58 78 -136 100 -175 39 -69 422
-662 478 -740 16 -22 46 -70 68 -106 37 -61 95 -141 198 -274 21 -27 54 -72
73 -100 58 -85 122 -164 206 -255 44 -49 107 -128 139 -176 32 -49 78 -114
101 -144 89 -115 253 -338 304 -415 29 -44 76 -107 104 -140 70 -82 116 -142
150 -193 15 -24 30 -41 33 -39 3 3 -8 41 -25 84 -33 87 -108 323 -117 366 -4
20 -1 27 10 27 20 0 19 3 -14 52 -87 131 -241 373 -286 451 -17 29 -51 84 -76
122 -48 72 -232 433 -289 565 -18 41 -68 145 -111 231 -87 176 -166 358 -211
492 -16 49 -63 162 -103 251 -82 182 -173 394 -203 478 -12 31 -30 76 -41 100
-11 23 -77 203 -146 398 -93 260 -134 364 -156 390 -42 50 -182 257 -208 308
-12 23 -44 127 -70 230 -198 761 -247 927 -352 1182 -28 69 -68 168 -90 221
-76 188 -123 419 -84 419 8 0 15 2 15 4 0 36 -323 791 -430 1006 -20 41 -47
118 -59 170 -12 52 -34 118 -50 145 -44 79 -58 107 -78 155 -10 24 -33 69 -51
100 -20 33 -38 78 -43 113 -14 88 -45 159 -103 240 -49 69 -54 79 -58 143 -6
74 -37 173 -66 214 -11 14 -22 48 -25 75 -4 28 -19 72 -32 100 -28 54 -28 95
-1 210 7 30 11 119 10 220 -2 173 -20 510 -29 532 -2 7 -11 68 -20 134 -9 67
-23 147 -31 178 -7 30 -14 71 -14 91 0 44 -55 259 -81 318 -10 24 -34 65 -52
90 -18 26 -39 58 -45 72 -20 38 -53 72 -112 117 -30 22 -63 50 -73 61 -11 11
-24 19 -31 16 -7 -3 -20 4 -30 15 -10 11 -23 18 -27 15 -5 -3 -44 10 -86 30
-43 19 -103 42 -133 52 -30 9 -63 24 -73 33 -15 12 -20 13 -26 2 -6 -9 -22
-11 -57 -6 -285 35 -594 -13 -842 -133 -207 -100 -386 -435 -342 -640 12 -60
18 -71 71 -136 20 -24 24 -37 18 -61 -4 -16 -7 -54 -8 -84 -1 -42 -8 -66 -35
-110 -61 -100 -86 -260 -68 -430 6 -61 15 -118 20 -128 5 -10 21 -44 37 -76
33 -68 75 -107 116 -107 16 0 29 -4 29 -8 0 -37 -43 -153 -104 -282 -82 -170
-144 -344 -177 -490 -30 -133 -38 -503 -15 -671 20 -141 63 -319 111 -459 79
-230 257 -550 419 -754 40 -50 130 -165 201 -256 193 -247 279 -345 496 -565
l197 -200 -9 -70 c-35 -273 -38 -287 -86 -382 -29 -59 -52 -93 -62 -93 -9 0
-119 14 -246 30 -126 17 -405 53 -620 80 -214 27 -563 72 -775 99 -212 27
-635 82 -940 121 -305 39 -604 77 -665 85 -139 18 -429 55 -433 55 -6 0 -81
169 -96 217 -9 26 -25 129 -36 228 l-20 180 108 110 c152 154 256 278 538 639
272 349 409 591 513 911 85 261 117 488 108 774 -10 298 -61 490 -221 823 -65
136 -96 239 -96 319 l0 57 65 42 c67 44 99 87 89 124 -3 12 2 38 10 57 56 134
72 293 46 447 -11 68 -11 74 10 108 18 32 20 46 14 105 -6 59 -3 76 16 121 69
158 -13 414 -183 575 -108 103 -326 181 -606 218 -123 16 -391 18 -456 3z
m-30 -5815 l7 -213 -21 0 c-34 0 -69 91 -95 250 l-23 135 56 58 56 58 6 -38
c4 -21 10 -134 14 -250z m-196 -80 c1 -101 1 -103 -22 -103 -27 0 -260 30
-264 34 -2 2 59 60 134 129 l138 126 7 -42 c3 -23 7 -88 7 -144z m4517 -353
c-3 -14 -12 -74 -21 -135 -25 -165 -44 -191 -125 -180 l-51 7 6 147 c3 80 8
192 11 248 l6 103 89 -83 c76 -69 89 -86 85 -107z m192 -143 c59 -50 123 -106
143 -122 35 -29 96 -112 88 -119 -6 -6 -347 39 -355 46 -6 7 6 288 13 288 2 0
52 -42 111 -93z"/>
</g>
</svg>
